<?xml version="1.0" encoding="UTF-8" standalone="no"?>
<svg
   fill="#ffffff"
   width="250"
   height="250"
   viewBox="0 0 293.60015 293.63932"
   version="1.1"
   xml:space="preserve"
   style="clip-rule:evenodd;fill-rule:evenodd;stroke-linejoin:round;stroke-miterlimit:2"
   id="svg6"
   sodipodi:docname="favicon.svg"
   inkscape:version="1.2 (dc2aedaf03, 2022-05-15)"
   xmlns:inkscape="http://www.inkscape.org/namespaces/inkscape"
   xmlns:sodipodi="http://sodipodi.sourceforge.net/DTD/sodipodi-0.dtd"
   xmlns="http://www.w3.org/2000/svg"
   xmlns:svg="http://www.w3.org/2000/svg"><defs
   id="defs10" /><sodipodi:namedview
   id="namedview8"
   pagecolor="#505050"
   bordercolor="#eeeeee"
   borderopacity="1"
   inkscape:showpageshadow="0"
   inkscape:pageopacity="0"
   inkscape:pagecheckerboard="0"
   inkscape:deskcolor="#505050"
   showgrid="false"
   showguides="false"
   inkscape:zoom="3.9887663"
   inkscape:cx="124.47458"
   inkscape:cy="118.58303"
   inkscape:window-width="1920"
   inkscape:window-height="1017"
   inkscape:window-x="-8"
   inkscape:window-y="-8"
   inkscape:window-maximized="1"
   inkscape:current-layer="layer1"><sodipodi:guide
     position="59.474257,351.64918"
     orientation="1,0"
     id="guide4806"
     inkscape:locked="false" /><sodipodi:guide
     position="78.264659,260.64586"
     orientation="1,0"
     id="guide6986"
     inkscape:locked="false" /><sodipodi:guide
     position="263.7147,260.64586"
     orientation="1,0"
     id="guide6988"
     inkscape:locked="false" /></sodipodi:namedview>
<g
   transform="translate(9.40435e-5)"
   id="g4"
   style="display:none;opacity:0.119205"
   sodipodi:insensitive="true">
  <path
   d="m 4.285,28.35 c 10e-4,0 10e-4,0 0.002,0 15.237,0 27.775,12.537 27.776,27.774 v 8.464 C 19.77,64.536 9.07,55.884 6.446,43.874 L 6.44,43.854 C 5.883,41.623 5.156,35.134 5.156,35.134 v 0.011 C 4.989,32.581 3.363,30.329 0.982,29.365 L 0.954,29.352 0.937,29.343 c -0.171,-0.086 -0.28,-0.261 -0.28,-0.453 0,-0.254 0.192,-0.471 0.445,-0.502 h 0.073 c 0.993,-0.051 2,-0.035 3.114,-0.035 M 26.759,23.3 C 21.62,15.558 12.921,10.895 3.629,10.9 2.519,10.9 1.511,10.885 0.515,10.937 H 0.448 C 0.191,10.964 -0.005,11.186 0,11.444 0,11.636 0.108,11.813 0.28,11.9 H 0.3 l 0.028,0.015 C 2.711,12.88 4.337,15.134 4.5,17.7 v -0.012 c 0,0 0.731,6.489 1.288,8.72 v 0.021 c 0.067,0.3 0.136,0.6 0.212,0.892 4.664,0.274 9.192,1.681 13.19,4.1 1.303,-3.628 4.042,-6.566 7.57,-8.12 m 34.116,5.047 C 45.638,28.349 33.1,40.887 33.1,56.125 v 8.462 C 45.391,64.533 56.09,55.882 58.715,43.874 v -0.02 c 0.557,-2.229 1.287,-8.72 1.287,-8.72 v 0.011 c 0.165,-2.564 1.791,-4.816 4.172,-5.78 l 0.029,-0.012 0.018,-0.009 c 0.168,-0.087 0.274,-0.262 0.274,-0.451 0,-0.255 -0.192,-0.472 -0.445,-0.504 h -0.071 c -0.993,-0.051 -2,-0.035 -3.114,-0.035 M 38.408,23.3 c 3.528,1.555 6.268,4.49 7.577,8.116 3.995,-2.418 8.521,-3.825 13.183,-4.096 0.073,-0.3 0.144,-0.594 0.207,-0.892 v -0.021 c 0.56,-2.232 1.289,-8.72 1.289,-8.72 V 17.7 c 0.164,-2.564 1.79,-4.817 4.171,-5.781 l 0.028,-0.015 0.018,-0.006 c 0.17,-0.086 0.277,-0.261 0.277,-0.452 0,-0.255 -0.193,-0.472 -0.446,-0.503 h -0.069 c -0.995,-0.052 -2,-0.037 -3.114,-0.037 C 52.241,10.902 43.546,15.563 38.408,23.3 M 38.754,8.585 C 37.716,7.436 35.033,2.876 33.384,0.51 33.235,0.211 32.934,0.015 32.6,0 h -0.03 c -0.335,0.015 -0.637,0.212 -0.786,0.512 -1.645,2.366 -4.324,6.926 -5.37,8.074 -2.687,2.955 -4.907,5.631 -5.344,7.1 2.573,1.954 4.801,4.325 6.591,7.014 l 0.361,0.544 v -1.863 h 1.336 v -6.133 h -0.44 v -0.779 h 0.564 l -0.01,-0.223 h 0.511 c 0.216,-1.039 0.866,-1.938 1.784,-2.47 l -0.341,-1.4 -0.116,0.073 -0.093,-0.011 C 31.132,10.283 31.078,10.113 31.057,9.938 31,9.574 31.121,9.685 31.121,9.685 V 9.483 L 31.034,9.034 31.07,9 31.081,8.829 c 0,0 0.03,-0.086 -0.093,-0.145 C 30.865,8.625 30.735,8.512 30.873,8.427 31.011,8.342 30.907,8.283 30.907,8.283 30.821,8.223 30.755,8.139 30.715,8.042 c -0.03,-0.246 0.01,-0.496 0.115,-0.72 0.11,-0.24 0.25,-0.466 0.417,-0.671 0.128,-0.238 0.21,-0.497 0.241,-0.765 0.031,-0.268 0.066,-0.329 0.145,-0.391 0.079,-0.062 0.13,-0.3 0.264,-0.346 C 32.031,5.103 32.031,5.076 32.02,5.004 32.009,4.932 32.03,4.904 31.954,4.883 31.878,4.862 31.854,4.929 31.809,4.846 31.755,4.759 31.735,4.656 31.753,4.555 31.759,4.455 31.778,4.356 31.809,4.261 31.834,4.2 31.642,4.19 31.642,4.19 c 0,0 -0.064,0.06 0,-0.088 0.064,-0.148 0.121,-0.279 0.121,-0.279 l 0.013,-0.146 v -0.1 l 0.231,-0.072 c 0,0 -0.039,-0.115 0.122,-0.115 0.103,0.003 0.204,0.023 0.3,0.06 v 0.33 c 0.068,0.101 0.154,0.188 0.255,0.256 0.069,0.033 0.124,0.088 0.157,0.157 l 0.039,0.346 0.049,0.3 0.192,0.122 0.33,0.3 c 0,0 0.083,0.194 0.107,0.267 0.008,0.133 0.008,0.267 0,0.4 0.012,0.052 0.426,1.533 0.426,1.533 l 0.048,1.11 0.05,0.057 L 34.07,9.067 33.886,9.054 33.85,8.933 c 0,0 -0.115,-0.115 -0.146,-0.038 -0.031,0.077 -0.115,0.9 -0.115,0.9 l -0.2,1.225 -0.025,0.507 0.116,0.16 c 0,0 0.008,0.053 0.012,0.115 0.87,0.549 1.483,1.427 1.7,2.433 h 0.51 l -0.011,0.223 h 0.57 v 0.779 h -0.446 v 6.135 h 1.332 v 1.864 L 37.5,22.7 c 1.792,-2.688 4.021,-5.058 6.594,-7.012 -0.431,-1.465 -2.653,-4.141 -5.345,-7.1 m 55.091,8.941 -0.1,-0.1 c -1.343,0.041 -2.251,0.062 -2.724,0.061 -0.63,0 -1.243,-0.02 -1.84,-0.061 l -0.1,0.1 v 0.692 l 0.1,0.1 c 0.427,0.004 0.853,0.055 1.269,0.153 0.159,0.052 0.289,0.168 0.359,0.32 0.093,0.393 0.135,0.796 0.124,1.2 0.015,0.657 0.022,1.884 0.021,3.679 v 2.137 c 0,0.57 -0.031,1.14 -0.094,1.706 -0.034,0.457 -0.13,0.907 -0.285,1.338 -0.155,0.328 -0.379,0.618 -0.657,0.851 -0.795,0.635 -1.797,0.954 -2.813,0.895 -1.829,0 -2.977,-0.577 -3.444,-1.73 -0.325,-1.564 -0.441,-3.164 -0.346,-4.758 v -2.118 c -0.029,-1.063 0.014,-2.128 0.131,-3.185 0.024,-0.186 0.163,-0.339 0.346,-0.38 0.398,-0.056 0.798,-0.089 1.2,-0.1 l 0.1,-0.1 v -0.692 l -0.1,-0.1 c -0.625,0.041 -1.677,0.062 -3.156,0.061 -1.453,0 -2.508,-0.02 -3.166,-0.061 l -0.1,0.1 v 0.692 l 0.1,0.1 c 0.402,0.011 0.802,0.044 1.2,0.1 0.183,0.041 0.322,0.194 0.346,0.38 0.118,1.057 0.163,2.122 0.134,3.185 v 2.653 c -0.064,1.56 0.019,3.123 0.247,4.667 0.245,0.913 0.845,1.691 1.665,2.16 1.297,0.662 2.746,0.97 4.2,0.894 1.692,0.106 3.35,-0.525 4.543,-1.73 0.92,-1.256 1.347,-2.807 1.2,-4.357 v -3.166 c 0,-1.123 0.01,-1.983 0.03,-2.58 0.002,-0.522 0.044,-1.044 0.125,-1.56 0.103,-0.431 0.558,-0.647 1.366,-0.648 l 0.1,-0.1 z m 14.957,4.79 -0.1,-0.1 c -0.845,0.041 -1.466,0.061 -1.862,0.062 -0.52,0 -1.116,-0.021 -1.789,-0.062 l -0.1,0.1 v 0.516 l 0.1,0.1 c 0.293,0.01 0.583,0.055 0.865,0.134 0.225,0.09 0.353,0.346 0.38,0.761 0.04,0.815 0.064,1.43 0.072,1.839 l 0.052,3.219 c -2.152,-2.383 -4.113,-4.607 -5.882,-6.671 -0.752,0.04 -1.4,0.062 -1.941,0.062 -0.467,0 -0.987,-0.021 -1.562,-0.062 l -0.1,0.1 v 0.513 l 0.1,0.1 c 0.297,0.007 0.59,0.064 0.868,0.169 0.151,0.078 0.276,0.199 0.361,0.346 0.114,0.344 0.158,0.708 0.128,1.069 0,0.137 -0.009,0.732 -0.02,1.789 l -0.022,1.581 c 0,0.679 -0.02,1.358 -0.039,2.036 -0.022,0.7 -0.154,1.11 -0.4,1.212 -0.288,0.06 -0.58,0.105 -0.873,0.135 l -0.1,0.1 v 0.512 l 0.1,0.1 c 0.952,-0.042 1.564,-0.063 1.837,-0.062 0.276,0 0.885,0.019 1.831,0.062 l 0.1,-0.1 V 31.38 l -0.1,-0.1 C 100.404,31.268 100.11,31.223 99.824,31.144 99.623,31.039 99.492,30.837 99.478,30.611 99.444,30.387 99.427,30.16 99.425,29.933 99.4,29.09 99.374,28.411 99.354,27.897 L 99.3,24.719 c 2.677,3.015 4.801,5.434 6.372,7.257 0.644,0.076 1.166,0.139 1.561,0.195 l 0.1,-0.1 c 0,-0.027 -0.003,-0.465 -0.01,-1.316 -0.007,-0.67 -0.007,-1.259 0,-1.768 l 0.029,-2.671 c 0.007,-0.884 0.025,-1.553 0.052,-2.006 -0.008,-0.336 0.039,-0.671 0.138,-0.992 0.065,-0.115 0.168,-0.203 0.292,-0.248 0.275,-0.076 0.557,-0.119 0.842,-0.129 l 0.115,-0.1 z m 8.776,9.055 -0.1,-0.1 c -0.266,-0.016 -0.53,-0.052 -0.791,-0.108 -0.151,-0.045 -0.277,-0.151 -0.346,-0.293 -0.164,-0.985 -0.216,-1.985 -0.155,-2.981 v -1.579 c 0,-0.529 0.007,-1.125 0.021,-1.788 0.007,-0.467 0.017,-0.733 0.03,-0.8 0.004,-0.271 0.154,-0.52 0.391,-0.65 0.278,-0.077 0.565,-0.121 0.854,-0.131 l 0.1,-0.1 v -0.513 l -0.1,-0.1 c -0.747,0.041 -1.607,0.061 -2.579,0.062 -0.933,0 -1.793,-0.021 -2.58,-0.062 l -0.1,0.1 v 0.51 l 0.1,0.1 c 0.284,0.009 0.567,0.052 0.841,0.128 0.129,0.048 0.235,0.142 0.3,0.263 0.164,0.985 0.216,1.985 0.155,2.981 v 1.583 c 0,0.857 -0.007,1.535 -0.021,2.036 -0.02,0.705 -0.153,1.109 -0.4,1.212 -0.356,0.067 -0.647,0.111 -0.872,0.134 l -0.1,0.1 v 0.513 l 0.1,0.1 c 0.759,-0.041 1.619,-0.061 2.58,-0.062 0.897,0 1.756,0.021 2.579,0.062 l 0.1,-0.1 z m 12.8,-9.168 c -0.467,0.048 -1.313,0.072 -2.538,0.073 h -4.42 c -0.84,0.018 -1.68,-0.006 -2.518,-0.073 l -0.1,0.1 c 0.081,1.103 0.122,1.956 0.122,2.559 l 0.1,0.1 h 0.514 l 0.1,-0.1 0.134,-1.153 c 0.035,-0.275 0.148,-0.421 0.339,-0.442 0.157,-0.015 0.315,-0.022 0.473,-0.02 h 1.768 v 4.636 c 0,0.857 -0.008,1.535 -0.02,2.036 -0.021,0.705 -0.154,1.109 -0.4,1.212 -0.289,0.06 -0.581,0.105 -0.874,0.134 l -0.1,0.1 v 0.513 l 0.1,0.1 c 0.769,-0.041 1.629,-0.061 2.58,-0.062 0.911,0 1.771,0.021 2.58,0.062 l 0.1,-0.1 v -0.513 l -0.1,-0.1 c -0.266,-0.016 -0.531,-0.052 -0.792,-0.108 -0.151,-0.045 -0.277,-0.151 -0.346,-0.293 -0.161,-0.985 -0.213,-1.984 -0.154,-2.98 V 23.26 h 1.758 c 0.158,-0.002 0.316,0.005 0.473,0.02 0.192,0.021 0.3,0.167 0.339,0.442 l 0.134,1.153 0.093,0.1 h 0.526 l 0.1,-0.1 0.02,-1.408 c 0.005,-0.387 0.043,-0.773 0.115,-1.154 z m 11.986,7.1 h -0.513 l -0.1,0.092 -0.195,0.807 c -0.03,0.23 -0.152,0.439 -0.339,0.577 -0.704,0.162 -1.428,0.218 -2.149,0.165 h -1.417 c -0.028,-0.6 -0.043,-1.106 -0.043,-1.512 v -2.071 c 0.158,-0.007 0.627,-0.007 1.408,0 0.292,-0.03 0.586,0.031 0.842,0.174 0.234,0.272 0.34,0.632 0.288,0.987 l 0.1,0.1 h 0.514 l 0.1,-0.1 c -0.027,-0.666 -0.04,-1.2 -0.04,-1.6 0,-0.562 0.015,-1.061 0.04,-1.5 l -0.1,-0.1 h -0.514 l -0.1,0.1 c 0.032,0.313 -0.073,0.625 -0.288,0.855 -0.255,0.145 -0.55,0.206 -0.842,0.174 -0.773,0.007 -1.243,0.007 -1.408,0 v -1.4 c 0,-0.746 0.014,-1.342 0.043,-1.788 0.404,-0.027 0.871,-0.041 1.4,-0.04 0.438,0 0.827,0.013 1.162,0.04 0.264,-0.014 0.524,0.078 0.72,0.256 0.09,0.145 0.139,0.312 0.144,0.483 0,0.056 0,0.231 0.011,0.526 l 0.1,0.1 h 0.514 l 0.1,-0.1 0.062,-0.692 c 0.033,-0.349 0.095,-0.852 0.185,-1.509 l -0.1,-0.1 c -0.898,0.007 -2.066,0.021 -3.505,0.04 -1.057,0.013 -1.752,0.02 -2.087,0.021 -0.911,0 -1.781,-0.021 -2.61,-0.062 l -0.1,0.1 v 0.513 l 0.1,0.1 c 0.284,0.009 0.567,0.052 0.841,0.128 0.128,0.049 0.235,0.142 0.3,0.263 0.163,0.985 0.214,1.985 0.154,2.981 V 28.73 L 135,30.268 c 0.025,0.306 -0.006,0.615 -0.091,0.91 -0.189,0.164 -0.4,0.301 -0.627,0.407 l -0.053,0.115 v 0.194 l 0.1,0.1 c 0.615,-0.041 1.338,-0.061 2.169,-0.062 0.153,0 0.76,0.007 1.819,0.021 1.323,0.02 2.605,0.033 3.845,0.04 l 0.1,-0.1 c -0.011,-0.83 0.051,-1.658 0.186,-2.477 z M 154.8,26.889 c 0.045,1.02 -0.232,2.029 -0.793,2.883 -0.698,0.89 -1.801,1.369 -2.928,1.269 -0.378,-0.004 -0.755,-0.031 -1.13,-0.081 -0.048,-0.515 -0.072,-1.349 -0.073,-2.5 v -1.768 c 0,-1.739 0.024,-2.883 0.073,-3.432 0.375,-0.046 0.752,-0.07 1.13,-0.073 0.99,-0.107 1.984,0.178 2.768,0.793 0.696,0.802 1.042,1.85 0.959,2.909 m 2.846,-0.339 c 0.112,-1.354 -0.499,-2.671 -1.606,-3.46 -0.619,-0.397 -1.317,-0.656 -2.046,-0.759 -0.728,-0.083 -1.46,-0.116 -2.192,-0.1 -0.069,0 -0.207,0 -0.42,0.009 -0.213,0.009 -0.367,0.011 -0.462,0.011 -0.308,0 -0.807,0.007 -1.5,0.021 -0.693,0.014 -1.256,0.021 -1.679,0.021 -0.281,0 -0.856,-0.021 -1.73,-0.062 l -0.1,0.1 v 0.507 l 0.1,0.1 c 0.285,0.009 0.567,0.052 0.842,0.128 0.128,0.048 0.235,0.141 0.3,0.261 0.163,0.985 0.215,1.985 0.155,2.982 v 2.415 l -0.021,1.542 c 0.023,0.306 -0.008,0.614 -0.091,0.91 -0.19,0.162 -0.402,0.296 -0.629,0.4 l -0.052,0.115 v 0.2 l 0.1,0.1 c 0.549,-0.041 1.221,-0.061 2.014,-0.062 0.213,0 0.629,0.007 1.255,0.021 0.626,0.014 1.082,0.02 1.377,0.02 1.662,0.07 3.295,-0.46 4.6,-1.491 1.177,-0.96 1.839,-2.418 1.788,-3.936 m 21.4,0.638 c 0.028,-0.766 -0.169,-1.523 -0.565,-2.179 -0.378,-0.556 -0.926,-0.976 -1.562,-1.194 -0.363,-0.136 -0.739,-0.236 -1.121,-0.3 -0.657,-0.116 -1.057,-0.185 -1.2,-0.206 -0.906,-0.085 -1.791,-0.319 -2.621,-0.692 -0.575,-0.383 -0.902,-1.047 -0.854,-1.737 -0.022,-0.674 0.253,-1.324 0.75,-1.779 0.607,-0.512 1.387,-0.773 2.18,-0.73 0.603,-0.002 1.201,0.115 1.758,0.346 0.442,0.161 0.828,0.447 1.111,0.822 0.067,0.531 0.101,1.065 0.1,1.6 l 0.1,0.1 h 0.647 l 0.115,-0.1 c 0.019,-0.987 0.119,-1.97 0.3,-2.94 l -0.071,-0.247 c -1.216,-0.561 -2.548,-0.825 -3.886,-0.769 -1.505,-0.091 -2.992,0.378 -4.173,1.315 -0.952,0.851 -1.472,2.086 -1.417,3.362 -0.09,1.151 0.4,2.274 1.305,2.991 1.116,0.598 2.344,0.959 3.606,1.059 0.606,0.066 1.198,0.222 1.758,0.461 0.713,0.344 1.15,1.09 1.1,1.88 -0.001,0.53 -0.139,1.051 -0.4,1.512 -0.581,0.979 -1.683,1.534 -2.815,1.417 -0.721,0 -1.432,-0.168 -2.076,-0.492 -0.545,-0.236 -1.007,-0.63 -1.327,-1.13 -0.071,-0.505 -0.111,-1.013 -0.121,-1.523 v -0.23 l -0.093,-0.1 h -0.657 l -0.1,0.1 c 0.03,1.127 -0.067,2.254 -0.289,3.36 l 0.125,0.23 c 1.319,0.643 2.766,0.98 4.233,0.986 1.021,0.025 2.038,-0.149 2.992,-0.513 0.882,-0.348 1.648,-0.937 2.21,-1.7 0.642,-0.864 0.982,-1.916 0.965,-2.992 m 13.022,-4.975 c -0.468,0.047 -1.312,0.073 -2.538,0.073 h -4.421 c -0.839,0.018 -1.679,-0.006 -2.516,-0.073 l -0.1,0.1 c 0.083,1.103 0.125,1.956 0.124,2.559 l 0.1,0.1 h 0.514 l 0.1,-0.1 0.131,-1.153 c 0.036,-0.275 0.149,-0.421 0.339,-0.442 0.158,-0.015 0.316,-0.022 0.475,-0.02 h 1.75 v 4.635 c 0,0.857 -0.006,1.535 -0.019,2.036 -0.021,0.705 -0.155,1.109 -0.4,1.212 -0.289,0.06 -0.581,0.105 -0.875,0.134 l -0.1,0.1 v 0.513 l 0.1,0.1 c 0.769,-0.041 1.628,-0.061 2.579,-0.062 0.912,0 1.772,0.021 2.581,0.062 l 0.1,-0.1 v -0.513 l -0.1,-0.1 c -0.267,-0.016 -0.532,-0.052 -0.793,-0.108 -0.151,-0.045 -0.277,-0.151 -0.346,-0.293 -0.162,-0.985 -0.213,-1.985 -0.152,-2.981 V 23.26 h 1.756 c 0.158,-0.002 0.315,0.005 0.472,0.02 0.194,0.021 0.308,0.167 0.346,0.442 l 0.135,1.153 0.093,0.1 h 0.523 l 0.1,-0.1 0.021,-1.408 c 0.003,-0.387 0.042,-0.774 0.115,-1.154 z m 8.96,5.992 c -0.3,0.008 -0.745,0.011 -1.334,0.011 -0.761,0 -1.289,-0.004 -1.586,-0.011 l 1.414,-3.514 1.5,3.514 m 5.14,3.176 -0.1,-0.1 c -0.313,-0.027 -0.613,-0.141 -0.865,-0.329 -0.268,-0.229 -0.473,-0.523 -0.595,-0.854 l -3.36,-7.9 h -1.583 l -3.375,7.669 c -0.135,0.317 -0.307,0.618 -0.512,0.895 -0.103,0.13 -0.225,0.244 -0.361,0.339 -0.203,0.111 -0.427,0.178 -0.658,0.194 l -0.1,0.1 v 0.513 l 0.1,0.1 c 0.733,-0.041 1.278,-0.061 1.635,-0.062 0.309,0 0.883,0.021 1.73,0.062 l 0.1,-0.1 v -0.513 l -0.1,-0.1 c -0.247,-0.04 -0.462,-0.084 -0.648,-0.134 -0.167,-0.027 -0.287,-0.178 -0.276,-0.346 0.001,-0.141 0.029,-0.281 0.081,-0.412 l 0.473,-1.269 c 0.302,-0.005 0.864,-0.008 1.686,-0.009 1.063,0 1.718,0 1.96,0.009 l 0.541,1.333 c 0.06,0.14 0.067,0.297 0.02,0.442 -0.055,0.115 -0.164,0.197 -0.29,0.217 l -0.647,0.175 -0.1,0.1 V 31.9 l 0.1,0.1 c 1.344,-0.041 2.232,-0.062 2.663,-0.062 0.643,0 1.433,0.021 2.363,0.062 l 0.1,-0.1 z m 12.077,-9.168 c -0.467,0.047 -1.313,0.072 -2.538,0.073 h -4.42 c -0.84,0.017 -1.679,-0.007 -2.518,-0.073 l -0.1,0.1 c 0.083,1.103 0.125,1.956 0.125,2.559 l 0.1,0.1 h 0.514 l 0.1,-0.1 0.134,-1.153 c 0.035,-0.275 0.148,-0.421 0.339,-0.442 0.157,-0.015 0.315,-0.022 0.473,-0.02 h 1.76 v 4.635 c 0,0.857 -0.009,1.535 -0.02,2.036 -0.021,0.705 -0.155,1.109 -0.4,1.212 -0.289,0.06 -0.581,0.105 -0.874,0.134 l -0.1,0.1 v 0.513 l 0.1,0.1 c 0.769,-0.041 1.629,-0.061 2.58,-0.062 0.911,0 1.771,0.021 2.58,0.062 l 0.1,-0.1 v -0.513 l -0.1,-0.1 c -0.267,-0.016 -0.532,-0.052 -0.793,-0.108 -0.151,-0.045 -0.277,-0.151 -0.346,-0.293 -0.162,-0.985 -0.213,-1.985 -0.154,-2.981 V 23.26 h 1.758 c 0.158,-0.002 0.315,0.005 0.472,0.02 0.193,0.021 0.308,0.167 0.346,0.442 l 0.134,1.153 0.093,0.1 h 0.521 l 0.1,-0.1 0.02,-1.408 c 0.005,-0.387 0.043,-0.773 0.115,-1.154 z m 11.984,7.1 h -0.513 l -0.1,0.092 -0.195,0.807 c -0.03,0.23 -0.152,0.439 -0.339,0.577 -0.704,0.162 -1.428,0.218 -2.149,0.165 h -1.417 c -0.028,-0.6 -0.043,-1.106 -0.043,-1.512 v -2.056 c 0.158,-0.007 0.628,-0.007 1.409,0 0.292,-0.03 0.585,0.031 0.841,0.174 0.234,0.272 0.339,0.632 0.288,0.987 l 0.1,0.1 h 0.513 l 0.1,-0.1 c -0.028,-0.666 -0.04,-1.2 -0.04,-1.6 0,-0.563 0.015,-1.061 0.04,-1.5 l -0.1,-0.1 h -0.513 l -0.1,0.1 c 0.031,0.313 -0.074,0.625 -0.288,0.855 -0.255,0.145 -0.549,0.206 -0.841,0.174 -0.775,0.007 -1.245,0.007 -1.409,0 v -1.409 c 0,-0.746 0.014,-1.342 0.043,-1.788 0.4,-0.028 0.869,-0.04 1.4,-0.04 0.438,0 0.825,0.013 1.162,0.04 0.054,-0.013 0.109,-0.02 0.164,-0.02 0.384,0 0.7,0.316 0.7,0.7 0,0.02 0,0.04 -0.002,0.059 0,0.056 0,0.231 0.011,0.526 l 0.1,0.1 h 0.514 l 0.1,-0.1 0.063,-0.692 c 0.034,-0.349 0.096,-0.852 0.185,-1.509 l -0.1,-0.1 c -0.899,0.007 -2.067,0.021 -3.505,0.04 -1.057,0.012 -1.751,0.021 -2.088,0.021 -0.911,0 -1.781,-0.021 -2.609,-0.062 l -0.1,0.1 v 0.513 l 0.1,0.1 c 0.284,0.009 0.567,0.052 0.841,0.128 0.129,0.048 0.236,0.142 0.3,0.263 0.164,0.985 0.216,1.985 0.155,2.981 v 2.416 l -0.02,1.54 c 0.025,0.306 -0.006,0.615 -0.092,0.91 -0.189,0.164 -0.399,0.301 -0.626,0.407 l -0.053,0.115 v 0.194 l 0.1,0.1 c 0.615,-0.041 1.338,-0.061 2.169,-0.062 0.153,0 0.759,0.007 1.819,0.021 1.323,0.02 2.604,0.033 3.843,0.04 l 0.1,-0.1 c -0.011,-0.83 0.051,-1.658 0.186,-2.477 z m 11.367,-0.606 c 0.046,-0.729 -0.224,-1.444 -0.741,-1.961 -0.437,-0.365 -0.96,-0.612 -1.519,-0.72 l -1.974,-0.462 c -0.828,-0.185 -1.242,-0.599 -1.242,-1.243 -0.001,-0.444 0.219,-0.86 0.586,-1.11 0.374,-0.268 0.824,-0.409 1.284,-0.4 0.741,-0.056 1.466,0.237 1.96,0.792 0.021,0.11 0.042,0.497 0.063,1.161 l 0.091,0.093 h 0.526 l 0.1,-0.1 c 0.007,-0.766 0.084,-1.53 0.23,-2.282 l -0.1,-0.1 c -0.876,-0.381 -1.827,-0.563 -2.782,-0.533 -1.087,-0.082 -2.168,0.238 -3.035,0.9 -0.684,0.584 -1.072,1.444 -1.058,2.343 -0.013,0.605 0.175,1.198 0.535,1.685 0.394,0.519 0.958,0.884 1.594,1.03 l 1.644,0.43 c 0.431,0.086 0.837,0.27 1.187,0.536 0.241,0.253 0.363,0.598 0.335,0.946 0.013,0.504 -0.227,0.983 -0.638,1.276 -0.395,0.291 -0.876,0.442 -1.366,0.431 -0.865,0.068 -1.713,-0.277 -2.286,-0.929 l -0.142,-1.407 -0.106,-0.1 h -0.513 l -0.1,0.1 c 0.029,0.842 -0.048,1.685 -0.231,2.508 l 0.1,0.1 c 0.963,0.465 2.016,0.711 3.085,0.72 1.102,0.039 2.188,-0.275 3.1,-0.895 0.915,-0.624 1.447,-1.677 1.407,-2.784 M 87.58,53.785 c 0.05,0.857 -0.21,1.703 -0.732,2.384 -0.564,0.62 -1.381,0.952 -2.218,0.9 -0.396,0.008 -0.792,-0.015 -1.184,-0.069 -0.027,-0.493 -0.04,-0.997 -0.04,-1.512 v -4.756 c 0.346,-0.021 0.662,-0.031 0.936,-0.031 2.159,0 3.238,1.028 3.238,3.084 m -0.442,-6.826 c 0.003,0.51 -0.112,1.014 -0.338,1.471 -0.498,0.853 -1.466,1.325 -2.445,1.192 -0.474,0 -0.787,-0.007 -0.947,-0.021 v -2.836 c 0,-0.61 0.013,-1.277 0.04,-2 0.44,-0.059 0.883,-0.087 1.327,-0.082 1.576,0 2.364,0.757 2.363,2.271 m 3.587,6.506 c 0,-2.172 -1.412,-3.319 -4.235,-3.442 0.503,-0.114 0.997,-0.262 1.48,-0.442 0.413,-0.166 0.795,-0.4 1.131,-0.692 0.733,-0.594 1.155,-1.493 1.141,-2.436 0.01,-0.564 -0.156,-1.118 -0.474,-1.584 -0.595,-0.87 -1.849,-1.303 -3.761,-1.3 -0.419,0 -0.929,0.013 -1.53,0.039 -0.762,0.036 -1.616,0.053 -2.561,0.052 -1.488,0 -2.537,-0.021 -3.147,-0.063 l -0.1,0.094 v 0.7 l 0.1,0.1 c 0.401,0.012 0.802,0.046 1.2,0.1 0.183,0.042 0.322,0.194 0.346,0.381 0.118,1.057 0.163,2.121 0.135,3.185 v 5.218 l -0.031,2.306 c 0.02,0.459 -0.019,0.919 -0.115,1.368 -0.245,0.239 -0.522,0.443 -0.823,0.605 l -0.051,0.125 v 0.286 l 0.1,0.1 c 0.481,-0.042 1.159,-0.063 2.034,-0.062 l 2.459,0.052 c 0.267,0.007 0.605,0.01 1.016,0.01 1.101,0.045 2.195,-0.196 3.175,-0.7 1.535,-0.735 2.512,-2.298 2.5,-4 m 12.448,-0.134 c 0.016,0.808 -0.098,1.613 -0.339,2.384 -0.262,1.119 -1.289,1.902 -2.437,1.86 -0.442,0.011 -0.879,-0.092 -1.269,-0.3 -1.145,-0.632 -1.717,-2.079 -1.717,-4.34 -0.043,-0.946 0.167,-1.887 0.607,-2.726 0.446,-0.797 1.308,-1.276 2.221,-1.232 0.412,-0.009 0.82,0.078 1.191,0.256 0.848,0.483 1.42,1.339 1.542,2.307 0.13,0.591 0.197,1.195 0.2,1.8 m 2.846,-0.359 c 0.071,-1.376 -0.474,-2.714 -1.485,-3.649 -1.152,-0.94 -2.616,-1.413 -4.1,-1.326 -2.009,-0.183 -3.967,0.737 -5.108,2.4 -0.526,0.891 -0.787,1.915 -0.751,2.949 -0.08,1.425 0.456,2.819 1.47,3.823 1.121,0.973 2.579,1.47 4.061,1.385 0.786,0.003 1.569,-0.109 2.323,-0.33 1.511,-0.395 2.723,-1.53 3.217,-3.012 0.253,-0.72 0.382,-1.478 0.381,-2.241 m 12.848,-4.595 c -0.467,0.049 -1.313,0.074 -2.538,0.073 h -4.424 c -0.84,0.018 -1.68,-0.006 -2.518,-0.073 l -0.1,0.1 c 0.083,1.1 0.123,1.961 0.123,2.56 l 0.1,0.1 h 0.518 l 0.1,-0.1 0.134,-1.153 c 0.035,-0.273 0.148,-0.421 0.339,-0.442 0.157,-0.015 0.315,-0.022 0.473,-0.021 h 1.768 v 4.639 c 0,0.854 -0.008,1.534 -0.021,2.034 -0.02,0.706 -0.154,1.109 -0.4,1.212 -0.289,0.06 -0.581,0.105 -0.874,0.134 l -0.1,0.1 v 0.514 l 0.1,0.1 c 0.769,-0.041 1.63,-0.061 2.581,-0.062 0.911,0 1.771,0.021 2.58,0.062 l 0.1,-0.1 v -0.514 l -0.1,-0.1 c -0.266,-0.017 -0.531,-0.053 -0.792,-0.108 -0.151,-0.045 -0.276,-0.151 -0.346,-0.292 -0.161,-0.985 -0.213,-1.984 -0.154,-2.98 v -4.638 h 1.758 c 0.2,0 0.355,0.009 0.473,0.021 0.192,0.021 0.3,0.169 0.339,0.442 l 0.134,1.153 0.093,0.1 h 0.523 l 0.1,-0.1 0.02,-1.407 c 0.005,-0.387 0.044,-0.773 0.115,-1.153 z m 8.96,5.992 c -0.301,0.007 -0.746,0.011 -1.334,0.011 -0.761,0 -1.289,-0.004 -1.585,-0.011 l 1.421,-3.514 1.5,3.514 m 5.141,3.175 -0.1,-0.111 c -0.314,-0.027 -0.615,-0.142 -0.868,-0.33 -0.267,-0.228 -0.471,-0.521 -0.592,-0.851 l -3.362,-7.907 h -1.583 l -3.361,7.66 c -0.134,0.319 -0.306,0.621 -0.512,0.9 -0.103,0.13 -0.225,0.244 -0.361,0.339 -0.202,0.112 -0.426,0.178 -0.657,0.195 l -0.1,0.1 v 0.514 l 0.1,0.1 c 0.733,-0.041 1.278,-0.062 1.633,-0.063 0.307,0 0.884,0.021 1.73,0.063 l 0.1,-0.1 v -0.514 l -0.1,-0.1 c -0.246,-0.041 -0.462,-0.085 -0.647,-0.134 -0.166,-0.028 -0.286,-0.178 -0.277,-0.346 0.002,-0.141 0.03,-0.28 0.082,-0.411 l 0.473,-1.269 c 0.301,-0.005 0.863,-0.008 1.686,-0.009 1.062,0 1.716,0.003 1.961,0.009 l 0.546,1.327 c 0.06,0.14 0.067,0.297 0.019,0.442 -0.055,0.114 -0.163,0.195 -0.288,0.216 l -0.648,0.175 -0.1,0.1 v 0.514 l 0.1,0.1 c 1.344,-0.041 2.232,-0.062 2.663,-0.063 0.645,0 1.433,0.021 2.364,0.063 l 0.1,-0.1 z m 14.565,-9.055 -0.1,-0.1 c -0.845,0.041 -1.465,0.062 -1.86,0.062 -0.521,0 -1.117,-0.021 -1.789,-0.062 l -0.1,0.1 v 0.514 l 0.1,0.1 c 0.292,0.011 0.582,0.056 0.864,0.135 0.23,0.088 0.354,0.346 0.381,0.76 0.04,0.814 0.064,1.429 0.072,1.839 l 0.052,3.218 c -2.153,-2.383 -4.113,-4.607 -5.882,-6.671 -0.753,0.041 -1.401,0.062 -1.942,0.062 -0.467,0 -0.988,-0.021 -1.563,-0.062 l -0.1,0.1 v 0.514 l 0.1,0.1 c 0.297,0.008 0.59,0.066 0.868,0.171 0.152,0.077 0.277,0.198 0.361,0.346 0.113,0.344 0.157,0.707 0.128,1.068 0,0.137 -0.008,0.734 -0.02,1.789 l -0.021,1.584 c -0.007,0.679 -0.021,1.357 -0.04,2.034 -0.021,0.707 -0.154,1.111 -0.4,1.213 -0.356,0.069 -0.647,0.115 -0.874,0.135 l -0.1,0.1 v 0.513 l 0.1,0.1 c 0.953,-0.042 1.567,-0.063 1.84,-0.062 0.275,0 0.884,0.019 1.83,0.062 l 0.1,-0.1 V 57.55 l -0.1,-0.1 c -0.295,-0.012 -0.588,-0.057 -0.873,-0.135 -0.203,-0.104 -0.335,-0.309 -0.346,-0.536 -0.036,-0.224 -0.053,-0.451 -0.052,-0.678 -0.027,-0.846 -0.051,-1.524 -0.071,-2.034 l -0.052,-3.176 c 2.679,3.015 4.803,5.435 6.373,7.258 0.642,0.075 1.165,0.139 1.56,0.193 l 0.1,-0.1 c 0,-0.026 -0.003,-0.464 -0.01,-1.315 -0.007,-0.672 -0.007,-1.261 0,-1.768 l 0.03,-2.672 c 0.007,-0.883 0.025,-1.55 0.052,-2 -0.007,-0.336 0.04,-0.672 0.139,-0.993 0.067,-0.113 0.17,-0.2 0.293,-0.246 0.275,-0.075 0.557,-0.119 0.842,-0.129 l 0.115,-0.1 z m 8.776,9.055 -0.1,-0.1 c -0.266,-0.017 -0.531,-0.054 -0.792,-0.108 -0.151,-0.045 -0.277,-0.151 -0.346,-0.293 -0.164,-0.984 -0.216,-1.984 -0.155,-2.98 v -1.588 c 0,-0.527 0.007,-1.123 0.021,-1.788 0.007,-0.461 0.017,-0.734 0.03,-0.8 0.003,-0.271 0.153,-0.519 0.391,-0.648 0.278,-0.079 0.565,-0.124 0.854,-0.134 l 0.1,-0.1 v -0.514 l -0.1,-0.1 c -0.747,0.041 -1.607,0.062 -2.579,0.062 -0.933,0 -1.793,-0.021 -2.58,-0.062 l -0.1,0.1 v 0.514 l 0.1,0.1 c 0.284,0.01 0.567,0.053 0.841,0.128 0.128,0.049 0.235,0.142 0.3,0.263 0.164,0.984 0.216,1.984 0.155,2.98 v 1.585 c 0,0.855 -0.007,1.533 -0.021,2.034 -0.021,0.707 -0.154,1.111 -0.4,1.213 -0.356,0.067 -0.647,0.115 -0.872,0.134 l -0.1,0.1 v 0.514 l 0.1,0.1 c 0.759,-0.041 1.619,-0.061 2.58,-0.062 0.896,0 1.756,0.021 2.579,0.062 l 0.1,-0.1 z m 13.3,-0.759 c -0.903,0.462 -1.905,0.695 -2.919,0.678 -1.108,0.037 -2.175,-0.43 -2.9,-1.269 -0.761,-0.914 -1.155,-2.08 -1.105,-3.268 -0.046,-1 0.26,-1.986 0.865,-2.784 0.643,-0.789 1.626,-1.225 2.642,-1.173 0.943,-0.1 1.874,0.288 2.467,1.028 0.068,0.401 0.109,0.806 0.123,1.213 l 0.1,0.1 h 0.513 l 0.1,-0.1 c 0.024,-0.83 0.121,-1.656 0.289,-2.469 l -0.1,-0.1 c -1.175,-0.455 -2.429,-0.674 -3.689,-0.644 -1.56,-0.072 -3.099,0.384 -4.368,1.295 -1.193,0.926 -1.861,2.378 -1.788,3.886 -0.007,0.936 0.222,1.859 0.667,2.682 0.967,1.795 2.746,2.693 5.336,2.694 1.255,0.041 2.499,-0.25 3.606,-0.843 l 0.346,-0.76 z m 26.23,-4.372 -0.1,-0.1 -2.826,0.03 c -1.091,0.007 -2.134,-0.003 -3.127,-0.03 l -0.115,0.1 v 0.648 l 0.115,0.1 c 0.973,0.063 1.552,0.115 1.738,0.156 0.219,0.047 0.346,0.126 0.39,0.231 0.069,0.408 0.093,0.821 0.073,1.234 0,0.835 -0.024,1.493 -0.073,1.972 -0.814,0.38 -1.702,0.577 -2.6,0.577 -1.606,0.042 -3.139,-0.684 -4.124,-1.953 -1.644,-2.292 -1.979,-5.283 -0.884,-7.883 0.888,-1.935 2.905,-3.114 5.027,-2.938 0.863,-0.007 1.719,0.146 2.526,0.452 0.602,0.199 1.136,0.562 1.543,1.048 0.056,0.283 0.089,0.57 0.1,0.858 0.027,0.408 0.043,0.677 0.043,0.807 l 0.1,0.1 h 0.617 l 0.115,-0.1 c 0.05,-1.06 0.198,-2.112 0.44,-3.145 l -0.093,-0.185 c -0.703,-0.307 -1.438,-0.534 -2.191,-0.678 -1.094,-0.237 -2.21,-0.357 -3.329,-0.359 -1.607,-0.059 -3.207,0.249 -4.678,0.9 -2.578,1.151 -4.183,3.792 -4.019,6.61 -0.104,2.115 0.729,4.172 2.277,5.617 1.649,1.421 3.781,2.159 5.956,2.061 2.137,-0.057 4.247,-0.497 6.228,-1.3 -0.055,-0.568 -0.083,-1.143 -0.083,-1.73 -0.036,-0.696 -0.002,-1.393 0.1,-2.082 0.066,-0.181 0.316,-0.323 0.74,-0.426 l 0.1,-0.115 z m 9.249,1.952 c -0.301,0.007 -0.746,0.011 -1.335,0.011 -0.761,0 -1.289,-0.004 -1.585,-0.011 l 1.42,-3.514 1.5,3.514 m 5.139,3.175 -0.1,-0.1 c -0.314,-0.027 -0.614,-0.141 -0.867,-0.33 -0.267,-0.228 -0.471,-0.521 -0.593,-0.851 l -3.36,-7.906 h -1.583 l -3.362,7.658 c -0.135,0.319 -0.307,0.621 -0.512,0.9 -0.105,0.129 -0.227,0.244 -0.363,0.339 -0.202,0.113 -0.426,0.182 -0.657,0.2 l -0.1,0.1 v 0.514 l 0.1,0.1 c 0.733,-0.041 1.278,-0.061 1.634,-0.062 0.309,0 0.884,0.021 1.73,0.062 l 0.1,-0.1 v -0.514 l -0.112,-0.107 c -0.247,-0.04 -0.462,-0.085 -0.648,-0.134 -0.166,-0.028 -0.286,-0.178 -0.276,-0.346 0.001,-0.141 0.029,-0.28 0.081,-0.411 l 0.473,-1.269 c 0.302,-0.005 0.864,-0.008 1.686,-0.009 1.062,0 1.716,0.003 1.961,0.009 l 0.545,1.327 c 0.059,0.14 0.066,0.297 0.02,0.442 -0.057,0.114 -0.165,0.194 -0.29,0.216 l -0.647,0.175 -0.1,0.1 v 0.514 l 0.1,0.1 c 1.343,-0.041 2.231,-0.062 2.662,-0.063 0.643,0 1.433,0.021 2.364,0.063 l 0.1,-0.1 z m 13.772,0 -0.1,-0.1 c -0.121,-0.003 -0.24,-0.022 -0.356,-0.056 -0.085,-0.027 -0.166,-0.063 -0.243,-0.108 -0.574,-0.491 -1.07,-1.066 -1.47,-1.706 -0.485,-0.677 -0.866,-1.216 -1.139,-1.614 -0.262,-0.371 -0.471,-0.662 -0.628,-0.875 1.405,-0.629 2.107,-1.488 2.106,-2.579 0.04,-0.557 -0.171,-1.105 -0.576,-1.49 -0.736,-0.491 -1.619,-0.713 -2.5,-0.628 -0.172,0 -0.673,0.015 -1.5,0.04 -0.417,0.015 -1.082,0.022 -1.995,0.021 -0.913,-10e-4 -1.772,-0.021 -2.579,-0.062 l -0.1,0.1 V 49 l 0.1,0.1 c 0.284,0.009 0.567,0.052 0.841,0.128 0.128,0.049 0.235,0.142 0.3,0.263 0.163,0.984 0.215,1.984 0.154,2.98 v 1.585 c 0,0.855 -0.007,1.533 -0.021,2.034 -0.019,0.706 -0.155,1.111 -0.4,1.213 -0.356,0.067 -0.648,0.115 -0.874,0.134 l -0.1,0.1 v 0.514 l 0.1,0.1 c 0.76,-0.041 1.62,-0.061 2.579,-0.062 0.898,0 1.758,0.021 2.58,0.062 l 0.1,-0.1 v -0.514 l -0.1,-0.1 c -0.266,-0.018 -0.53,-0.054 -0.791,-0.108 -0.151,-0.046 -0.276,-0.152 -0.346,-0.293 -0.161,-0.985 -0.213,-1.984 -0.154,-2.98 V 51.44 c 0,-1.067 0.017,-1.779 0.052,-2.137 0.314,-0.031 0.63,-0.044 0.946,-0.04 0.384,-0.03 0.768,0.06 1.1,0.256 0.408,0.344 0.621,0.869 0.567,1.4 0,1.062 -0.408,1.675 -1.225,1.839 -0.306,0.039 -0.614,0.053 -0.922,0.043 l -0.165,0.411 c 0.138,0.13 0.262,0.275 0.37,0.431 0.357,0.529 0.665,0.99 0.923,1.384 0.817,1.213 1.389,2.056 1.717,2.528 0.139,0.186 0.25,0.39 0.329,0.608 0.485,-0.041 0.979,-0.061 1.48,-0.062 0.609,0 1.224,0.021 1.845,0.062 l 0.1,-0.1 z m 11.533,-4.489 c 0.045,1.02 -0.232,2.029 -0.791,2.883 -0.698,0.891 -1.803,1.369 -2.93,1.269 -0.378,-0.005 -0.755,-0.032 -1.13,-0.082 -0.05,-0.514 -0.074,-1.347 -0.073,-2.5 v -1.765 c 0,-1.74 0.024,-2.884 0.073,-3.432 0.375,-0.046 0.752,-0.069 1.13,-0.071 0.99,-0.107 1.984,0.177 2.768,0.792 0.692,0.803 1.035,1.85 0.951,2.907 m 2.847,-0.346 c 0.114,-1.353 -0.495,-2.671 -1.6,-3.46 -0.619,-0.398 -1.317,-0.658 -2.045,-0.761 -0.727,-0.082 -1.459,-0.115 -2.191,-0.1 -0.07,0 -0.21,0 -0.421,0.009 -0.211,0.009 -0.368,0.011 -0.462,0.011 -0.308,0 -0.806,0.008 -1.5,0.021 -0.694,0.013 -1.257,0.021 -1.68,0.021 -0.282,0 -0.859,-0.021 -1.73,-0.062 l -0.1,0.1 V 49 l 0.1,0.1 c 0.284,0.009 0.567,0.052 0.841,0.128 0.128,0.049 0.234,0.142 0.3,0.262 0.163,0.985 0.215,1.985 0.155,2.981 V 54.9 l -0.022,1.541 c 0.025,0.307 -0.007,0.615 -0.092,0.911 -0.189,0.162 -0.4,0.297 -0.627,0.4 l -0.053,0.115 v 0.2 l 0.1,0.1 c 0.549,-0.041 1.22,-0.061 2.014,-0.062 0.213,0 0.63,0.007 1.255,0.021 0.625,0.014 1.083,0.02 1.378,0.02 1.662,0.07 3.295,-0.459 4.6,-1.49 1.177,-0.961 1.839,-2.419 1.788,-3.938 m 12.189,2.769 h -0.514 l -0.1,0.092 -0.195,0.807 c -0.03,0.23 -0.153,0.439 -0.339,0.577 -0.703,0.162 -1.427,0.217 -2.147,0.164 h -1.417 c -0.029,-0.6 -0.043,-1.104 -0.043,-1.511 v -2.072 c 0.157,-0.007 0.626,-0.007 1.407,0 0.292,-0.03 0.586,0.031 0.842,0.175 0.234,0.272 0.339,0.631 0.289,0.986 l 0.1,0.1 h 0.513 l 0.1,-0.1 c -0.027,-0.667 -0.04,-1.2 -0.04,-1.6 0,-0.562 0.015,-1.06 0.04,-1.5 l -0.1,-0.1 h -0.513 l -0.1,0.1 c 0.03,0.313 -0.075,0.624 -0.289,0.854 -0.255,0.146 -0.55,0.208 -0.842,0.175 -0.775,0.007 -1.244,0.007 -1.407,0 v -1.425 c 0,-0.747 0.014,-1.344 0.043,-1.789 0.4,-0.028 0.87,-0.039 1.4,-0.039 0.438,0 0.825,0.012 1.162,0.039 0.265,-0.014 0.524,0.078 0.72,0.257 0.089,0.145 0.139,0.312 0.143,0.482 0,0.055 0,0.23 0.011,0.526 l 0.1,0.1 h 0.514 l 0.1,-0.1 0.062,-0.692 c 0.035,-0.348 0.097,-0.852 0.186,-1.511 l -0.1,-0.1 c -0.898,0.007 -2.066,0.021 -3.505,0.04 -1.056,0.015 -1.751,0.021 -2.087,0.021 -0.912,0 -1.782,-0.021 -2.61,-0.063 l -0.1,0.1 V 49 l 0.1,0.1 c 0.285,0.009 0.568,0.052 0.843,0.128 0.128,0.05 0.234,0.143 0.3,0.263 0.166,0.987 0.219,1.99 0.159,2.989 v 2.42 l -0.02,1.541 c 0.025,0.306 -0.006,0.615 -0.093,0.91 -0.189,0.164 -0.399,0.301 -0.626,0.407 l -0.053,0.115 v 0.2 l 0.1,0.1 c 0.615,-0.041 1.338,-0.061 2.169,-0.062 0.154,0 0.76,0.007 1.819,0.021 1.323,0.02 2.604,0.033 3.843,0.04 l 0.1,-0.1 c -0.011,-0.83 0.051,-1.658 0.186,-2.477 z m 15.428,-6.99 -0.1,-0.1 c -0.846,0.041 -1.466,0.061 -1.861,0.062 -0.521,0 -1.118,-0.021 -1.788,-0.062 l -0.1,0.1 v 0.514 l 0.1,0.1 c 0.292,0.011 0.581,0.056 0.862,0.135 0.231,0.088 0.358,0.342 0.383,0.761 0.041,0.814 0.064,1.427 0.071,1.839 l 0.052,3.218 c -2.153,-2.383 -4.113,-4.607 -5.882,-6.671 -0.753,0.041 -1.401,0.061 -1.942,0.062 -0.467,0 -0.988,-0.021 -1.563,-0.062 l -0.1,0.1 v 0.514 l 0.1,0.1 c 0.297,0.008 0.591,0.066 0.869,0.171 0.152,0.077 0.278,0.198 0.361,0.346 0.115,0.344 0.158,0.707 0.128,1.068 0,0.137 -0.008,0.734 -0.019,1.789 l -0.021,1.583 c -0.007,0.679 -0.021,1.358 -0.041,2.035 -0.02,0.707 -0.153,1.111 -0.4,1.213 -0.355,0.067 -0.647,0.112 -0.874,0.135 l -0.1,0.1 v 0.513 l 0.1,0.1 c 0.955,-0.042 1.568,-0.063 1.84,-0.062 0.275,0 0.885,0.019 1.83,0.062 l 0.1,-0.1 v -0.513 l -0.1,-0.1 c -0.295,-0.012 -0.588,-0.057 -0.873,-0.135 -0.202,-0.104 -0.334,-0.308 -0.346,-0.535 -0.035,-0.224 -0.052,-0.451 -0.052,-0.678 -0.027,-0.842 -0.052,-1.522 -0.071,-2.035 L 256.5,50.9 c 2.679,3.016 4.804,5.436 6.373,7.259 0.643,0.077 1.163,0.141 1.562,0.193 l 0.1,-0.1 c 0,-0.026 0,-0.461 -0.011,-1.315 -0.007,-0.672 -0.007,-1.261 0,-1.768 l 0.03,-2.672 c 0.007,-0.884 0.026,-1.553 0.052,-2 -0.008,-0.336 0.039,-0.672 0.139,-0.993 0.066,-0.113 0.169,-0.2 0.292,-0.246 0.275,-0.075 0.559,-0.119 0.844,-0.129 l 0.116,-0.1 z"
   style="fill-rule:nonzero"
   id="path2" />
</g>
<g
   inkscape:groupmode="layer"
   id="layer2"
   inkscape:label="Layer 2"
   style="display:inline"
   sodipodi:insensitive="true" /><g
   inkscape:groupmode="layer"
   id="layer1"
   inkscape:label="Layer 1"><path
     style="fill:#f2f7f2;fill-opacity:1;stroke-width:0.672154"
     d="m 60.356553,269.09398 c -3.522078,-3.61022 -8.738717,-9.02466 -11.592512,-12.0321 l -5.188728,-5.46808 v -4.05678 c 0,-11.41907 9.241087,-82.85136 16.171996,-125.00732 C 64.560933,93.25179 72.985815,48.131489 74.535695,43.328985 75.050519,41.73375 78.514092,38.620598 89.047587,30.285287 104.19445,18.299346 104.79343,17.997695 113.47927,17.981579 c 23.37364,-0.04328 110.16366,2.936505 114.74152,3.93954 0.91578,0.200664 5.37221,5.140463 11.64381,12.906781 l 10.16024,12.581699 -0.25239,4.384579 c -0.13875,2.411524 -2.55452,15.72717 -5.36823,29.590344 -2.81372,13.86317 -5.94925,30.045278 -6.96788,35.960228 -1.0186,5.91495 -2.21424,11.15695 -2.65695,11.64885 -0.60974,0.67751 -9.26237,1.31281 -35.67872,2.61967 l -34.87378,1.72528 -3.69684,-1.32089 c -3.51499,-1.2559 -3.70732,-1.44568 -3.90917,-3.85782 -0.44007,-5.25869 7.32804,-38.164664 15.24715,-64.58738 2.21594,-7.393704 4.25246,-14.022012 4.52557,-14.729613 1.00205,-2.596172 -1.12706,-0.237269 -7.76126,8.598999 -15.56963,20.737545 -27.47692,43.982394 -33.4911,65.379784 l -1.76674,6.28582 h -3.1864 c -1.75254,0 -3.39493,0.33736 -3.64977,0.74968 -0.28063,0.45414 -1.61629,0.61974 -3.38783,0.42007 -1.75158,-0.19747 -3.163,-0.0258 -3.51917,0.42656 -0.32709,0.41592 -2.0408,5.14202 -3.8083,10.50245 -1.76752,5.36041 -3.35275,10.12429 -3.52278,10.5864 -0.23004,0.62525 0.98881,0.8402 4.76429,0.8402 2.79036,0 5.26033,0.30246 5.4888,0.67216 0.22852,0.36964 1.71726,0.67214 3.30838,0.67214 h 2.89298 l 0.37582,13.27505 c 0.50696,17.90766 2.64115,29.77543 8.2591,45.92703 2.65861,7.64351 9.50592,23.27521 10.45145,23.85957 0.33323,0.20594 0.59444,-7.62725 0.59994,-17.99111 0.0122,-24.87147 2.22067,-61.16604 3.98045,-65.44614 0.38055,-0.92553 1.87835,-1.7803 4.52265,-2.58092 3.68371,-1.11533 6.28211,-1.15704 38.04759,-0.61069 30.76146,0.52907 34.20598,0.6985 35.24091,1.73343 1.30119,1.30119 1.10702,3.47876 -2.11136,23.67878 -0.94241,5.91494 -3.10492,22.09705 -4.80555,35.96022 -1.70065,13.86317 -3.37355,26.71811 -3.71753,28.56654 -0.60797,3.26693 -1.07868,3.80185 -16.85672,19.15639 l -16.23131,15.79561 -59.87489,0.17868 -59.874916,0.17866 z"
     id="path3898" /><path
     style="fill:#000000;stroke-width:0.375858"
     id="path3894"
     d="" /></g></svg>
