<?xml version="1.0" encoding="UTF-8" standalone="no"?>
<svg
   enable-background="new 0 0 350 350"
   version="1.1"
   viewBox="0 0 250 250"
   xml:space="preserve"
   id="svg437"
   sodipodi:docname="places_to_see-charlotte-2019-clr.svg"
   width="250"
   height="250"
   inkscape:version="1.2 (dc2aedaf03, 2022-05-15)"
   xmlns:inkscape="http://www.inkscape.org/namespaces/inkscape"
   xmlns:sodipodi="http://sodipodi.sourceforge.net/DTD/sodipodi-0.dtd"
   xmlns="http://www.w3.org/2000/svg"
   xmlns:svg="http://www.w3.org/2000/svg"><defs
   id="defs441" /><sodipodi:namedview
   id="namedview439"
   pagecolor="#505050"
   bordercolor="#eeeeee"
   borderopacity="1"
   inkscape:showpageshadow="0"
   inkscape:pageopacity="0"
   inkscape:pagecheckerboard="0"
   inkscape:deskcolor="#505050"
   showgrid="false"
   inkscape:zoom="1.3801754"
   inkscape:cx="13.766366"
   inkscape:cy="128.96911"
   inkscape:window-width="1920"
   inkscape:window-height="1017"
   inkscape:window-x="-8"
   inkscape:window-y="-8"
   inkscape:window-maximized="1"
   inkscape:current-layer="svg437" />
<style
   type="text/css"
   id="style2">
	.st0{fill:#FFFFFF;stroke:#BC852C;stroke-width:3;stroke-miterlimit:10;}
	.st1{fill:url(#i);}
	.st2{fill:#92B83E;}
	.st3{font-family:'Helvetica';}
	.st4{font-size:33.4735px;}
	.st5{fill:#11688F;}
	.st6{font-size:22.52px;}
	.st7{font-size:21.382px;}
	.st8{font-size:21.0583px;}
	.st9{fill:url(#h);}
	.st10{fill:url(#g);}
	.st11{fill:url(#f);}
	.st12{fill:url(#e);}
	.st13{fill:url(#d);}
	.st14{fill:url(#c);}
	.st15{fill:url(#b);}
	.st16{fill:url(#a);}
	.st17{fill:url(#q);}
	.st18{fill:url(#p);}
	.st19{fill:url(#o);}
	.st20{fill:#010101;}
	.st21{fill:none;stroke:#010101;stroke-width:0.3972;stroke-miterlimit:10;}
	.st22{fill:url(#n);}
	.st23{fill:url(#m);}
	.st24{fill:url(#l);}
	.st25{fill:url(#k);}
	.st26{fill:url(#j);}
        .st27{font-weight:bold;}
</style>
<linearGradient
   id="i"
   x1="173.5"
   x2="177.03"
   y1="343.32999"
   y2="6.4074998"
   gradientUnits="userSpaceOnUse">
<stop
   stop-color="#D9A047"
   offset="0"
   id="stop4" />
<stop
   stop-color="#D29B42"
   offset=".1034"
   id="stop6" />
<stop
   stop-color="#D29B42"
   offset=".1899"
   id="stop8" />
<stop
   stop-color="#E7DE84"
   offset=".4014"
   id="stop10" />
<stop
   stop-color="#BB8C3C"
   offset=".6082"
   id="stop12" />
<stop
   stop-color="#B98A39"
   offset=".8149"
   id="stop14" />
<stop
   stop-color="#DBD796"
   offset="1"
   id="stop16" />
</linearGradient>









<linearGradient
   id="h"
   x1="108.24"
   x2="15.59"
   y1="-372.97"
   y2="-418.17001"
   gradientTransform="translate(0,672.5)"
   gradientUnits="userSpaceOnUse">
<stop
   stop-color="#2A1C12"
   offset="0"
   id="stop37" />
<stop
   stop-color="#302013"
   offset=".026319"
   id="stop39" />
<stop
   stop-color="#3D2918"
   offset=".065564"
   id="stop41" />
<stop
   stop-color="#54371F"
   offset=".1129"
   id="stop43" />
<stop
   stop-color="#794923"
   offset=".166"
   id="stop45" />
<stop
   stop-color="#864F22"
   offset=".1818"
   id="stop47" />
<stop
   stop-color="#B2813A"
   offset=".2545"
   id="stop49" />
<stop
   stop-color="#8E5D26"
   offset=".2788"
   id="stop51" />
<stop
   stop-color="#976628"
   offset=".3318"
   id="stop53" />
<stop
   stop-color="#AA7F39"
   offset=".4294"
   id="stop55" />
<stop
   stop-color="#D1B260"
   offset=".5598"
   id="stop57" />
<stop
   stop-color="#F8E887"
   offset=".6606"
   id="stop59" />
<stop
   stop-color="#864F22"
   offset=".8667"
   id="stop61" />
</linearGradient>

<linearGradient
   id="g"
   x1="246.42999"
   x2="333.06"
   y1="-375.32999"
   y2="-414.95999"
   gradientTransform="translate(0,672.5)"
   gradientUnits="userSpaceOnUse">
<stop
   stop-color="#2A1C12"
   offset="0"
   id="stop66" />
<stop
   stop-color="#302013"
   offset=".026319"
   id="stop68" />
<stop
   stop-color="#3D2918"
   offset=".065564"
   id="stop70" />
<stop
   stop-color="#54371F"
   offset=".1129"
   id="stop72" />
<stop
   stop-color="#794923"
   offset=".166"
   id="stop74" />
<stop
   stop-color="#864F22"
   offset=".1818"
   id="stop76" />
<stop
   stop-color="#B2813A"
   offset=".2545"
   id="stop78" />
<stop
   stop-color="#8E5D26"
   offset=".2788"
   id="stop80" />
<stop
   stop-color="#976628"
   offset=".2959"
   id="stop82" />
<stop
   stop-color="#AA803A"
   offset=".3274"
   id="stop84" />
<stop
   stop-color="#D1B363"
   offset=".3695"
   id="stop86" />
<stop
   stop-color="#F7E68A"
   offset=".4"
   id="stop88" />
<stop
   stop-color="#E8B965"
   offset=".5818"
   id="stop90" />
<stop
   stop-color="#F8E887"
   offset=".6364"
   id="stop92" />
<stop
   stop-color="#864F22"
   offset=".8667"
   id="stop94" />
</linearGradient>

<linearGradient
   id="f"
   x1="240.11"
   x2="318.59"
   y1="-388.87"
   y2="-424.76999"
   gradientTransform="translate(0,672.5)"
   gradientUnits="userSpaceOnUse">
<stop
   stop-color="#2A1C12"
   offset=".012121"
   id="stop99" />
<stop
   stop-color="#8E5D26"
   offset=".2606"
   id="stop101" />
<stop
   stop-color="#99682A"
   offset=".2897"
   id="stop103" />
<stop
   stop-color="#B7873F"
   offset=".3434"
   id="stop105" />
<stop
   stop-color="#E8B965"
   offset=".4"
   id="stop107" />
<stop
   stop-color="#864F22"
   offset=".6061"
   id="stop109" />
<stop
   stop-color="#2A1C12"
   offset="1"
   id="stop111" />
</linearGradient>

<linearGradient
   id="e"
   x1="306.54001"
   x2="337.89001"
   y1="-392.79999"
   y2="-407.14001"
   gradientTransform="translate(0,672.5)"
   gradientUnits="userSpaceOnUse">
<stop
   stop-color="#2A1C12"
   offset=".012121"
   id="stop116" />
<stop
   stop-color="#8E5D26"
   offset=".2606"
   id="stop118" />
<stop
   stop-color="#99682A"
   offset=".2897"
   id="stop120" />
<stop
   stop-color="#B7873F"
   offset=".3434"
   id="stop122" />
<stop
   stop-color="#E8B965"
   offset=".4"
   id="stop124" />
<stop
   stop-color="#864F22"
   offset=".6061"
   id="stop126" />
<stop
   stop-color="#2A1C12"
   offset="1"
   id="stop128" />
</linearGradient>

<linearGradient
   id="d"
   x1="17.631001"
   x2="44.091"
   y1="-393.85999"
   y2="-405.97"
   gradientTransform="translate(0,672.5)"
   gradientUnits="userSpaceOnUse">
<stop
   stop-color="#2A1C12"
   offset=".012121"
   id="stop133" />
<stop
   stop-color="#8E5D26"
   offset=".2606"
   id="stop135" />
<stop
   stop-color="#99682A"
   offset=".2897"
   id="stop137" />
<stop
   stop-color="#B7873F"
   offset=".3434"
   id="stop139" />
<stop
   stop-color="#E8B965"
   offset=".4"
   id="stop141" />
<stop
   stop-color="#864F22"
   offset=".6061"
   id="stop143" />
<stop
   stop-color="#2A1C12"
   offset="1"
   id="stop145" />
</linearGradient>

<linearGradient
   id="c"
   x1="49.382"
   x2="101.57"
   y1="-396.39999"
   y2="-420.28"
   gradientTransform="translate(0,672.5)"
   gradientUnits="userSpaceOnUse">
<stop
   stop-color="#2A1C12"
   offset=".012121"
   id="stop150" />
<stop
   stop-color="#8E5D26"
   offset=".2606"
   id="stop152" />
<stop
   stop-color="#99682A"
   offset=".2897"
   id="stop154" />
<stop
   stop-color="#B7873F"
   offset=".3434"
   id="stop156" />
<stop
   stop-color="#E8B965"
   offset=".4"
   id="stop158" />
<stop
   stop-color="#864F22"
   offset=".6061"
   id="stop160" />
<stop
   stop-color="#2A1C12"
   offset="1"
   id="stop162" />
</linearGradient>

<linearGradient
   id="b"
   x1="75.045998"
   x2="118.93"
   y1="-392.92001"
   y2="-374.92001"
   gradientTransform="translate(0,672.5)"
   gradientUnits="userSpaceOnUse">
<stop
   stop-color="#2E191B"
   offset="0"
   id="stop167" />
<stop
   stop-color="#513126"
   offset=".1864"
   id="stop169" />
<stop
   stop-color="#7C492A"
   offset=".3758"
   id="stop171" />
<stop
   stop-color="#78462A"
   offset=".4147"
   id="stop173" />
<stop
   stop-color="#6A3F29"
   offset=".4669"
   id="stop175" />
<stop
   stop-color="#543226"
   offset=".5266"
   id="stop177" />
<stop
   stop-color="#38201F"
   offset=".5915"
   id="stop179" />
<stop
   stop-color="#2E191B"
   offset=".6121"
   id="stop181" />
<stop
   stop-color="#8E5D26"
   offset=".8364"
   id="stop183" />
<stop
   stop-color="#845724"
   offset=".8604"
   id="stop185" />
<stop
   stop-color="#694722"
   offset=".9047"
   id="stop187" />
<stop
   stop-color="#432F1C"
   offset=".9638"
   id="stop189" />
<stop
   stop-color="#2A1C12"
   offset="1"
   id="stop191" />
</linearGradient>

<linearGradient
   id="a"
   x1="275.01999"
   x2="235.45"
   y1="-392.92999"
   y2="-374.70999"
   gradientTransform="translate(0,672.5)"
   gradientUnits="userSpaceOnUse">
<stop
   stop-color="#2E191B"
   offset="0"
   id="stop196" />
<stop
   stop-color="#513126"
   offset=".1864"
   id="stop198" />
<stop
   stop-color="#7C492A"
   offset=".3758"
   id="stop200" />
<stop
   stop-color="#78462A"
   offset=".4147"
   id="stop202" />
<stop
   stop-color="#6A3F29"
   offset=".4669"
   id="stop204" />
<stop
   stop-color="#543226"
   offset=".5266"
   id="stop206" />
<stop
   stop-color="#38201F"
   offset=".5915"
   id="stop208" />
<stop
   stop-color="#2E191B"
   offset=".6121"
   id="stop210" />
<stop
   stop-color="#8E5D26"
   offset=".8364"
   id="stop212" />
<stop
   stop-color="#845724"
   offset=".8604"
   id="stop214" />
<stop
   stop-color="#694722"
   offset=".9047"
   id="stop216" />
<stop
   stop-color="#432F1C"
   offset=".9638"
   id="stop218" />
<stop
   stop-color="#2A1C12"
   offset="1"
   id="stop220" />
</linearGradient>

<linearGradient
   id="q"
   x1="65.811996"
   x2="268.73999"
   y1="-385.73999"
   y2="-305.69"
   gradientTransform="translate(0,672.5)"
   gradientUnits="userSpaceOnUse">
<stop
   stop-color="#2A1C12"
   offset="0"
   id="stop225" />
<stop
   stop-color="#2D1E14"
   offset=".00012292"
   id="stop227" />
<stop
   stop-color="#432C1A"
   offset=".001217"
   id="stop229" />
<stop
   stop-color="#55381F"
   offset=".0024362"
   id="stop231" />
<stop
   stop-color="#654022"
   offset=".0038339"
   id="stop233" />
<stop
   stop-color="#744823"
   offset=".005467"
   id="stop235" />
<stop
   stop-color="#7E4C22"
   offset=".0074862"
   id="stop237" />
<stop
   stop-color="#844E22"
   offset=".010319"
   id="stop239" />
<stop
   stop-color="#864F22"
   offset=".018182"
   id="stop241" />
<stop
   stop-color="#F7E68A"
   offset=".036364"
   id="stop243" />
<stop
   stop-color="#8E5D26"
   offset=".072727"
   id="stop245" />
<stop
   stop-color="#99682A"
   offset=".082861"
   id="stop247" />
<stop
   stop-color="#B7873F"
   offset=".1015"
   id="stop249" />
<stop
   stop-color="#E8B965"
   offset=".1212"
   id="stop251" />
<stop
   stop-color="#F8E887"
   offset=".1697"
   id="stop253" />
<stop
   stop-color="#B2813A"
   offset=".2303"
   id="stop255" />
<stop
   stop-color="#E6B963"
   offset=".3333"
   id="stop257" />
</linearGradient>

<linearGradient
   id="p"
   x1="161.60001"
   x2="284.06"
   y1="-329.84"
   y2="-390.51999"
   gradientTransform="translate(0,672.5)"
   gradientUnits="userSpaceOnUse">
<stop
   stop-color="#E6B963"
   offset=".3212"
   id="stop262" />
<stop
   stop-color="#F5E082"
   offset=".5461"
   id="stop264" />
<stop
   stop-color="#F8E887"
   offset=".5879"
   id="stop266" />
<stop
   stop-color="#F1DF81"
   offset=".6206"
   id="stop268" />
<stop
   stop-color="#E1CB73"
   offset=".6646"
   id="stop270" />
<stop
   stop-color="#CCAD5D"
   offset=".7148"
   id="stop272" />
<stop
   stop-color="#B28A41"
   offset=".7697"
   id="stop274" />
<stop
   stop-color="#946327"
   offset=".8279"
   id="stop276" />
<stop
   stop-color="#8E5D26"
   offset=".8364"
   id="stop278" />
<stop
   stop-color="#99682A"
   offset=".8541"
   id="stop280" />
<stop
   stop-color="#B7873F"
   offset=".8868"
   id="stop282" />
<stop
   stop-color="#E8B965"
   offset=".9212"
   id="stop284" />
<stop
   stop-color="#864F22"
   offset=".9818"
   id="stop286" />
<stop
   stop-color="#2A1C12"
   offset="1"
   id="stop288" />
</linearGradient>

<linearGradient
   id="o"
   x1="74.57"
   x2="277.53"
   y1="-381"
   y2="-381"
   gradientTransform="translate(0,672.5)"
   gradientUnits="userSpaceOnUse">
<stop
   stop-color="#2A1C12"
   offset=".012121"
   id="stop293" />
<stop
   stop-color="#8E5D26"
   offset=".2606"
   id="stop295" />
<stop
   stop-color="#99682A"
   offset=".2897"
   id="stop297" />
<stop
   stop-color="#B7873F"
   offset=".3434"
   id="stop299" />
<stop
   stop-color="#E8B965"
   offset=".4"
   id="stop301" />
<stop
   stop-color="#864F22"
   offset=".6061"
   id="stop303" />
<stop
   stop-color="#2A1C12"
   offset="1"
   id="stop305" />
</linearGradient>

















<linearGradient
   id="n"
   x1="323.5"
   x2="341.35001"
   y1="-201.64"
   y2="-199.09"
   gradientTransform="matrix(-0.8002,-0.5998,0.5998,-0.8002,593.39,294.68)"
   gradientUnits="userSpaceOnUse">
<stop
   stop-color="#D9A048"
   offset="0"
   id="stop342" />
<stop
   stop-color="#D39C43"
   offset=".081767"
   id="stop344" />
<stop
   stop-color="#C1903B"
   offset=".1818"
   id="stop346" />
<stop
   stop-color="#BA8A3A"
   offset=".222"
   id="stop348" />
<stop
   stop-color="#F0ECB4"
   offset=".4512"
   id="stop350" />
<stop
   stop-color="#BB8C3D"
   offset=".6707"
   id="stop352" />
<stop
   stop-color="#BA8A3A"
   offset=".8366"
   id="stop354" />
<stop
   stop-color="#F0ECB4"
   offset="1"
   id="stop356" />
</linearGradient>

<linearGradient
   id="m"
   x1="375.67001"
   x2="393.51999"
   y1="-240.75"
   y2="-238.19"
   gradientTransform="matrix(-0.8002,-0.5998,0.5998,-0.8002,593.39,294.68)"
   gradientUnits="userSpaceOnUse">
<stop
   stop-color="#D9A048"
   offset="0"
   id="stop361" />
<stop
   stop-color="#D39C43"
   offset=".081767"
   id="stop363" />
<stop
   stop-color="#C1903B"
   offset=".1818"
   id="stop365" />
<stop
   stop-color="#BA8A3A"
   offset=".222"
   id="stop367" />
<stop
   stop-color="#F0ECB4"
   offset=".4512"
   id="stop369" />
<stop
   stop-color="#BB8C3D"
   offset=".6707"
   id="stop371" />
<stop
   stop-color="#BA8A3A"
   offset=".8366"
   id="stop373" />
<stop
   stop-color="#F0ECB4"
   offset="1"
   id="stop375" />
</linearGradient>

<linearGradient
   id="l"
   x1="361.62"
   x2="383.32999"
   y1="-229.99001"
   y2="-226.89"
   gradientTransform="matrix(-0.8002,-0.5998,0.5998,-0.8002,593.39,294.68)"
   gradientUnits="userSpaceOnUse">
<stop
   stop-color="#D9A048"
   offset="0"
   id="stop380" />
<stop
   stop-color="#D39C43"
   offset=".081767"
   id="stop382" />
<stop
   stop-color="#C1903B"
   offset=".1818"
   id="stop384" />
<stop
   stop-color="#BA8A3A"
   offset=".222"
   id="stop386" />
<stop
   stop-color="#F0ECB4"
   offset=".4512"
   id="stop388" />
<stop
   stop-color="#BB8C3D"
   offset=".6707"
   id="stop390" />
<stop
   stop-color="#BA8A3A"
   offset=".8366"
   id="stop392" />
<stop
   stop-color="#F0ECB4"
   offset="1"
   id="stop394" />
</linearGradient>

<linearGradient
   id="k"
   x1="335.91"
   x2="356.73999"
   y1="-210.77"
   y2="-207.78999"
   gradientTransform="matrix(-0.8002,-0.5998,0.5998,-0.8002,593.39,294.68)"
   gradientUnits="userSpaceOnUse">
<stop
   stop-color="#D9A048"
   offset="0"
   id="stop399" />
<stop
   stop-color="#D39C43"
   offset=".081767"
   id="stop401" />
<stop
   stop-color="#C1903B"
   offset=".1818"
   id="stop403" />
<stop
   stop-color="#BA8A3A"
   offset=".222"
   id="stop405" />
<stop
   stop-color="#F0ECB4"
   offset=".4512"
   id="stop407" />
<stop
   stop-color="#BB8C3D"
   offset=".6707"
   id="stop409" />
<stop
   stop-color="#BA8A3A"
   offset=".8366"
   id="stop411" />
<stop
   stop-color="#F0ECB4"
   offset="1"
   id="stop413" />
</linearGradient>

<linearGradient
   id="j"
   x1="347.04999"
   x2="372.39999"
   y1="-218.86"
   y2="-215.23"
   gradientTransform="matrix(-0.8002,-0.5998,0.5998,-0.8002,593.39,294.68)"
   gradientUnits="userSpaceOnUse">
<stop
   stop-color="#D9A048"
   offset="0"
   id="stop418" />
<stop
   stop-color="#D39C43"
   offset=".081767"
   id="stop420" />
<stop
   stop-color="#C1903B"
   offset=".1818"
   id="stop422" />
<stop
   stop-color="#BA8A3A"
   offset=".222"
   id="stop424" />
<stop
   stop-color="#F0ECB4"
   offset=".4512"
   id="stop426" />
<stop
   stop-color="#BB8C3D"
   offset=".6707"
   id="stop428" />
<stop
   stop-color="#BA8A3A"
   offset=".8366"
   id="stop430" />
<stop
   stop-color="#F0ECB4"
   offset="1"
   id="stop432" />
</linearGradient>
<g
   id="g788"
   transform="matrix(0.68709441,0,0,0.68709441,4.8615432,4.8271885)"><path
     class="st1"
     d="m 319.5,207.1 c -1.4,5.8 -3.2,11.4 -5.3,16.9 2.1,-2.5 4.6,-4.9 7,-6.2 8.4,-4.4 20.4,-1 20.4,-1 0,0 -4.4,10.3 -13.1,13.3 -7.8,2.6 -14.4,2.1 -17.6,1.6 -2.6,5.5 -5.5,10.9 -8.7,16 2.6,-2.2 5.7,-4.4 8.5,-5.3 9.2,-3 20.7,2.6 20.7,2.6 0,0 -6.2,9.6 -15.5,11 -8.4,1.3 -15.1,-0.5 -18.1,-1.6 -3.6,5.1 -7.5,9.9 -11.6,14.4 3.1,-1.8 6.7,-3.6 9.8,-4 9.8,-1.4 20.3,6.3 20.3,6.3 0,0 -8,8.6 -17.5,8.3 -8.8,-0.2 -15.2,-3.3 -18,-4.9 -4.4,4.4 -9,8.5 -13.7,12.2 3.4,-1.3 7.3,-2.4 10.5,-2.3 10.1,0.4 19.3,9.9 19.3,9.9 0,0 -9.5,7.2 -19.1,5.3 -8.7,-1.7 -14.6,-5.9 -17.2,-8 -4.7,3.4 -9.6,6.5 -14.5,9.2 3.3,-0.6 7,-0.8 9.8,-0.2 10,2.2 17.7,13.4 17.7,13.4 0,0 -10.8,5.5 -20.1,1.9 -8.1,-3.2 -13.2,-8.1 -15.6,-10.8 -5.2,2.5 -10.5,4.6 -15.7,6.2 3.4,0.1 7,0.4 9.6,1.5 9.7,3.9 15.4,16.6 15.4,16.6 0,0 -11.9,3.6 -20.5,-1.6 -7.9,-4.8 -12.2,-11 -13.9,-14 -12.3,2.2 -22.6,5.7 -30.9,9.4 15.1,8 21.3,15.3 21.3,15.3 l -5.4,4.8 c 0,0 -7,-8.6 -22.6,-16.8 -15.5,8.3 -22.6,16.8 -22.6,16.8 l -5.4,-4.8 c 0,0 6.2,-7.4 21.3,-15.3 -8.4,-3.8 -18.6,-7.2 -30.9,-9.4 -1.7,3 -6,9.2 -13.9,14 -8.7,5.3 -20.5,1.6 -20.5,1.6 0,0 5.7,-12.6 15.4,-16.6 2.7,-1.1 6.2,-1.5 9.6,-1.5 -5.2,-1.6 -10.4,-3.7 -15.7,-6.2 -2.3,2.7 -7.4,7.6 -15.6,10.8 -9.3,3.6 -20.1,-1.9 -20.1,-1.9 0,0 7.6,-11.2 17.7,-13.4 2.8,-0.6 6.4,-0.3 9.8,0.2 -4.9,-2.7 -9.7,-5.8 -14.5,-9.2 -2.6,2.1 -8.5,6.3 -17.2,8 -9.6,1.9 -19.1,-5.3 -19.1,-5.3 0,0 9.3,-9.5 19.3,-9.9 3.2,-0.1 7.1,1 10.5,2.3 -4.7,-3.8 -9.3,-7.8 -13.7,-12.2 -2.8,1.6 -9.2,4.7 -18,4.9 -9.5,0.2 -17.5,-8.3 -17.5,-8.3 0,0 10.6,-7.6 20.3,-6.3 3.1,0.4 6.7,2.2 9.8,4 -4.1,-4.5 -8,-9.4 -11.6,-14.4 -3,1.1 -9.7,2.9 -18.2,1.6 -9.2,-1.4 -15.5,-11 -15.5,-11 0,0 11.5,-5.6 20.7,-2.6 2.8,0.9 5.9,3.1 8.5,5.3 -3.2,-5.1 -6.1,-10.4 -8.7,-16 -3.2,0.5 -9.8,1.1 -17.6,-1.6 -8.7,-2.9 -13.1,-13.3 -13.1,-13.3 0,0 12,-3.4 20.4,1 2.4,1.3 4.9,3.8 7,6.2 -2.1,-5.4 -3.9,-11.1 -5.3,-16.9 -3.1,0 -9.7,-0.6 -16.9,-4.5 -7.9,-4.3 -10.4,-15 -10.4,-15 0,0 12.2,-1.2 19.5,4.5 2.3,1.8 4.3,4.8 6,7.7 -1.3,-6.1 -2.2,-12.2 -2.7,-18.3 -3,-0.6 -9.2,-2.3 -15.4,-7.2 C 4.4,168.8 3.8,158 3.8,158 c 0,0 12,0.9 18.1,7.6 1.8,2 3.3,5.2 4.4,8.3 -0.2,-6.4 0.1,-12.7 0.8,-18.9 -2.7,-1 -8.6,-3.7 -13.9,-9.7 -5.7,-6.5 -4.4,-17 -4.4,-17 0,0 11.4,2.9 16.1,10.4 1.6,2.5 2.5,6.3 3,9.6 1,-6.7 2.4,-13.2 4.3,-19.6 -2.3,-1.3 -7.8,-4.9 -12,-11.8 -4.4,-7.2 -1.4,-17.1 -1.4,-17.1 0,0 10.5,4.7 13.8,12.8 1.2,3 1.3,7.3 1.2,10.8 2.2,-6.8 4.8,-13.3 7.8,-19.6 -2,-1.6 -6.7,-6.1 -9.6,-13.5 -3,-7.7 1.6,-16.8 1.6,-16.8 0,0 9.4,6.4 11.1,14.7 0.7,3 0.1,7.1 -0.6,10.4 3.3,-6.4 7,-12.4 11,-17.9 -1.7,-2.1 -5.3,-7 -6.8,-14.4 -1.6,-8 4.4,-15.9 4.4,-15.9 0,0 7.9,7.7 8.3,16.1 0.1,2.8 -1,6.4 -2.1,9.3 4.4,-5.5 9,-10.4 13.8,-14.6 -1.2,-2.1 -4.1,-7.7 -4.3,-15.4 -0.2,-8 6.9,-14.6 6.9,-14.6 0,0 6.4,8.8 5.2,17 -0.4,3.2 -2.7,7.2 -4.5,10.1 5.9,-5.1 11.6,-9.4 17.1,-13 -0.8,-2 -2.8,-8 -1.6,-15.9 1.2,-7.7 9.2,-12.9 9.2,-12.9 0,0 4.6,9.6 2.2,17.3 -1.1,3.3 -4.4,7.2 -6.8,9.6 7.1,-4.5 13.8,-7.8 19.5,-10.3 -0.4,-1.9 -1.5,-8.2 1.1,-15.7 2.4,-7.3 11.1,-10.9 11.1,-10.9 0,0 2.8,10 -0.9,17 -1.7,3.3 -6,6.6 -8.7,8.5 3.7,-1.5 7,-2.7 9.6,-3.5 0,0.2 0.1,0.3 0.2,0.5 -3.6,1.2 -8.2,3.1 -13.7,5.6 2.7,-0.5 9.8,-1.6 14,-0.2 7.5,2.5 12.4,11.6 12.4,11.6 0,0 -8.7,3.3 -15.5,-0.2 -7.6,-3.9 -11.2,-9.6 -11.9,-10.8 -6,2.9 -12.8,6.7 -20,11.7 3.1,-1.1 9,-2.8 13,-2.3 8,1.1 14.6,9.5 14.6,9.5 0,0 -8.2,4.9 -15.6,2.6 -7.8,-2.4 -12.4,-7.1 -13.7,-8.6 -5.4,3.9 -11.1,8.4 -16.8,13.7 -0.4,0.4 -0.9,0.8 -1.3,1.2 3,-1.7 8.4,-4.4 12.5,-4.5 8.2,-0.3 16.3,7 16.3,7 0,0 -7.4,6.4 -15.3,5.4 -8.4,-1.1 -13.8,-5 -15.3,-6.2 -5.4,5.2 -10.5,11.2 -15.2,18 2.7,-2.2 7.7,-5.9 11.7,-6.7 8.2,-1.7 17.6,4.1 17.6,4.1 0,0 -6.3,7.7 -14.4,8.1 C 63,88.8 56.9,85.9 55,85 c -4,5.9 -7.6,12.3 -10.8,19.1 2.4,-2.7 6.1,-6.1 9.4,-7.5 7.9,-3.2 18.4,1 18.4,1 0,0 -4.9,8.9 -13,10.7 -7.8,1.7 -14,0.3 -16.5,-0.4 -2.8,6.3 -5.2,13 -7.2,19.8 2,-3 4.7,-6.6 7.6,-8.4 7.4,-4.6 18.7,-2.3 18.7,-2.3 0,0 -3.4,9.8 -11.2,13 -7.3,3 -13.7,2.8 -16.5,2.5 -1.7,6.8 -3,13.8 -3.7,20.9 1.5,-3.4 3.6,-7.6 6.2,-9.9 6.6,-6 18.4,-5.6 18.4,-5.6 0,0 -1.7,10.4 -8.9,15.1 -6.8,4.4 -13.3,5.3 -16.1,5.5 -0.5,6.9 -0.5,14 0,21 0.9,-3.7 2.3,-8.4 4.5,-11.2 5.6,-7.2 17.5,-8.9 17.5,-8.9 0,0 0.2,10.8 -6.3,16.7 -6.1,5.6 -12.4,7.6 -15.2,8.3 0.7,6.3 1.9,12.7 3.6,18.9 0.3,-3.7 0.9,-8 2.5,-10.9 4.4,-8.2 16,-12 16,-12 0,0 2.1,10.8 -3.4,17.9 -5,6.5 -10.8,9.7 -13.6,11 1.8,6.3 4,12.3 6.7,18.2 -0.4,-3.8 -0.5,-8.4 0.5,-11.6 2.9,-9 14,-14.9 14,-14.9 0,0 4,10.5 -0.2,18.6 -3.8,7.4 -9.1,11.6 -11.7,13.4 2.8,5.5 5.9,10.8 9.4,15.8 -0.9,-3.5 -1.7,-7.6 -1.2,-10.8 1.4,-9.6 11.4,-17.5 11.4,-17.5 0,0 5.9,9.8 3.1,18.7 -2.4,7.8 -6.7,12.9 -9.1,15.3 3.6,4.8 7.5,9.3 11.5,13.5 -1.5,-3.2 -2.8,-6.9 -2.9,-9.9 -0.3,-9.9 8.4,-19.6 8.4,-19.6 0,0 7.7,8.8 6.4,18.3 -1.1,8.1 -4.3,13.9 -6.3,16.8 4.3,4 8.7,7.8 13.3,11.2 -2,-2.9 -3.8,-6.3 -4.5,-9.2 -2.1,-9.9 4.9,-21.1 4.9,-21.1 0,0 9.3,7.5 9.7,17.2 0.4,8.3 -1.9,14.7 -3.4,18 5.1,3.4 10.3,6.4 15.5,9 -2.7,-2.7 -5.4,-6 -6.7,-9 -3.8,-9.5 1.2,-22.1 1.2,-22.1 0,0 10.6,5.9 12.8,15.6 1.9,8.4 0.7,15.4 -0.3,18.9 5.5,2.3 10.9,4.2 16.2,5.6 -3,-2.2 -6.1,-4.8 -7.8,-7.5 -5.5,-8.9 -2.7,-22.5 -2.7,-22.5 0,0 11.7,4 15.6,13.4 3.2,7.6 3.4,14.4 3.1,18.2 7.7,1.5 14.7,3.4 20.9,5.6 4.3,1.5 8.2,3.1 11.7,4.7 3.5,-1.6 7.4,-3.2 11.7,-4.7 6.2,-2.2 13.2,-4.2 20.9,-5.6 -0.2,-3.8 0,-10.6 3.1,-18.2 3.9,-9.4 15.6,-13.4 15.6,-13.4 0,0 2.8,13.5 -2.7,22.5 -1.7,2.7 -4.8,5.4 -7.8,7.5 5.3,-1.4 10.7,-3.2 16.2,-5.6 -0.9,-3.5 -2.1,-10.4 -0.3,-18.9 2.1,-9.7 12.8,-15.6 12.8,-15.6 0,0 5,12.6 1.2,22.1 -1.2,3.1 -4,6.3 -6.7,9 5.2,-2.6 10.4,-5.6 15.5,-9 -1.5,-3.3 -3.7,-9.7 -3.4,-18 0.4,-9.7 9.7,-17.2 9.7,-17.2 0,0 7,11.3 4.9,21.1 -0.6,3 -2.5,6.3 -4.5,9.2 4.6,-3.4 9.1,-7.2 13.3,-11.2 -2,-2.9 -5.3,-8.7 -6.3,-16.8 -1.2,-9.5 6.4,-18.3 6.4,-18.3 0,0 8.7,9.7 8.4,19.6 -0.1,3 -1.4,6.7 -2.9,9.9 4.1,-4.2 7.9,-8.7 11.5,-13.5 -2.4,-2.4 -6.7,-7.5 -9.1,-15.3 -2.8,-8.9 3.1,-18.7 3.1,-18.7 0,0 10,7.9 11.4,17.5 0.5,3.2 -0.3,7.3 -1.3,10.8 3.4,-5 6.6,-10.3 9.4,-15.8 -2.6,-1.8 -7.9,-6 -11.7,-13.4 -4.2,-8.1 -0.2,-18.6 -0.2,-18.6 0,0 11,5.9 14,14.9 1.1,3.3 0.9,7.9 0.5,11.7 2.6,-5.8 4.9,-11.9 6.7,-18.2 -2.8,-1.3 -8.6,-4.5 -13.6,-11 -5.5,-7.1 -3.4,-17.9 -3.4,-17.9 0,0 11.6,3.8 16,12 1.6,2.9 2.2,7.3 2.5,11 1.7,-6.3 2.9,-12.6 3.6,-19 -2.8,-0.7 -9.2,-2.8 -15.2,-8.3 -6.5,-6 -6.3,-16.7 -6.3,-16.7 0,0 11.9,1.7 17.5,8.9 2.2,2.8 3.7,7.5 4.5,11.2 0.6,-7.1 0.5,-14.1 0,-21.1 -2.8,-0.2 -9.3,-1.1 -16.1,-5.5 -7.3,-4.6 -8.9,-15.1 -8.9,-15.1 0,0 11.8,-0.4 18.4,5.6 2.6,2.3 4.8,6.6 6.2,10 -0.8,-7.1 -2,-14.2 -3.7,-21 -2.8,0.3 -9.2,0.5 -16.5,-2.5 -7.8,-3.2 -11.2,-13 -11.2,-13 0,0 11.3,-2.4 18.7,2.3 2.8,1.8 5.6,5.4 7.6,8.4 -2,-6.9 -4.4,-13.5 -7.2,-19.9 -2.5,0.7 -8.8,2.2 -16.5,0.4 -8.1,-1.8 -13,-10.7 -13,-10.7 0,0 10.5,-4.2 18.4,-1 3.3,1.3 6.9,4.8 9.4,7.5 -3.2,-6.8 -6.9,-13.3 -10.8,-19.2 -1.8,1 -7.9,3.9 -16.3,3.5 -8.1,-0.4 -14.4,-8.1 -14.4,-8.1 0,0 9.4,-5.8 17.6,-4.1 4,0.9 9.1,4.6 11.7,6.8 -4.7,-6.8 -9.8,-12.8 -15.2,-18 -1.5,1.2 -6.9,5.1 -15.3,6.2 -7.9,1 -15.3,-5.4 -15.3,-5.4 0,0 8.1,-7.2 16.3,-7 4.1,0.1 9.6,2.9 12.6,4.5 -0.4,-0.4 -0.9,-0.8 -1.3,-1.2 -5.7,-5.3 -11.4,-9.9 -16.8,-13.7 -1.3,1.5 -5.9,6.1 -13.7,8.6 -7.4,2.3 -15.6,-2.6 -15.6,-2.6 0,0 6.6,-8.4 14.6,-9.5 4,-0.6 9.9,1.2 13,2.3 -7.3,-5 -14.1,-8.8 -20.1,-11.7 -0.7,1.2 -4.3,6.9 -11.9,10.8 -6.8,3.5 -15.5,0.2 -15.5,0.2 0,0 4.9,-9.2 12.4,-11.6 4.3,-1.4 11.4,-0.3 14.1,0.2 -5.3,-2.5 -9.8,-4.3 -13.3,-5.5 0,-0.2 0.1,-0.3 0.1,-0.5 2.6,0.8 5.7,1.9 9.3,3.4 -2.7,-1.9 -7,-5.3 -8.7,-8.5 -3.7,-7 -0.9,-17 -0.9,-17 0,0 8.6,3.6 11.1,10.9 2.5,7.6 1.5,13.9 1.1,15.7 5.7,2.4 12.3,5.8 19.5,10.2 -2.4,-2.5 -5.7,-6.3 -6.7,-9.6 -2.5,-7.7 2.2,-17.3 2.2,-17.3 0,0 8,5.2 9.2,12.9 1.2,7.9 -0.8,13.9 -1.6,15.9 5.5,3.6 11.2,7.9 17.1,13 -1.9,-2.9 -4.1,-6.8 -4.5,-10 -1.1,-8.2 5.2,-17 5.2,-17 0,0 7.1,6.6 6.9,14.6 -0.2,7.7 -3,13.3 -4.3,15.4 4.8,4.2 9.4,9.1 13.8,14.6 -1.2,-3 -2.2,-6.5 -2.1,-9.3 0.3,-8.4 8.3,-16.1 8.3,-16.1 0,0 6,7.9 4.4,15.9 -1.5,7.4 -5.1,12.4 -6.8,14.4 4,5.5 7.7,11.5 11,17.8 -0.7,-3.3 -1.3,-7.4 -0.6,-10.4 1.8,-8.4 11.1,-14.7 11.1,-14.7 0,0 4.6,9 1.6,16.8 -2.9,7.4 -7.6,11.8 -9.6,13.5 3,6.2 5.6,12.7 7.8,19.5 -0.1,-3.5 0,-7.8 1.2,-10.8 3.3,-8.1 13.8,-12.8 13.8,-12.8 0,0 3,9.9 -1.4,17.1 -4.2,6.9 -9.7,10.5 -12,11.8 1.8,6.4 3.2,12.9 4.3,19.6 0.5,-3.3 1.4,-7.1 3,-9.6 4.7,-7.6 16.1,-10.4 16.1,-10.4 0,0 1.3,10.5 -4.4,17 -5.3,6 -11.2,8.7 -13.9,9.6 0.7,6.2 0.9,12.5 0.8,18.9 1.1,-3 2.5,-6.2 4.4,-8.2 6.1,-6.8 18.1,-7.6 18.1,-7.6 0,0 -0.5,10.8 -7.4,16.3 -6.2,5 -12.4,6.6 -15.4,7.2 -0.5,6.1 -1.4,12.2 -2.7,18.2 1.6,-2.9 3.7,-5.9 6,-7.7 7.3,-5.7 19.5,-4.5 19.5,-4.5 0,0 -2.5,10.7 -10.4,15 -6.6,3.9 -13.2,4.4 -16.3,4.4 z"
     id="path19"
     style="fill:url(#i)" /><text
     class="st2 st3 st4"
     alignment-baseline="middle"
     text-anchor="middle"
     id="text21"
     x="175.99001"
     y="33.799">2019</text><path
     class="st5"
     d="M 133.5,72.8 H 125 v -3.1 h 20.6 v 3.1 h -8.5 v 24.8 h -3.6 z"
     id="path23" /><path
     class="st5"
     d="m 171.5,83.4 c 0,9.6 -5.8,14.7 -12.9,14.7 -7.4,0 -12.5,-5.7 -12.5,-14.1 0,-8.9 5.5,-14.6 12.9,-14.6 7.5,-0.1 12.5,5.7 12.5,14 z m -21.7,0.5 c 0,6 3.2,11.3 8.9,11.3 5.7,0 8.9,-5.3 8.9,-11.6 0,-5.5 -2.9,-11.3 -8.9,-11.3 -5.9,-0.1 -8.9,5.4 -8.9,11.6 z"
     id="path25" /><path
     class="st5"
     d="m 176.1,70.1 c 1.7,-0.3 4,-0.5 6.9,-0.5 3.6,0 6.2,0.8 7.8,2.3 1.5,1.3 2.4,3.4 2.4,5.8 0,2.5 -0.7,4.5 -2.2,6 -1.9,2 -5,3.1 -8.5,3.1 -1.1,0 -2.1,0 -2.9,-0.2 V 97.8 H 176 V 70.1 Z m 3.6,13.4 c 0.8,0.2 1.8,0.3 3,0.3 4.3,0 7,-2.1 7,-6 0,-3.7 -2.6,-5.5 -6.6,-5.5 -1.6,0 -2.8,0.1 -3.4,0.3 z"
     id="path27" /><path
     class="st5"
     d="m 206.5,93.5 c 1,0.7 3.4,1.7 6,1.7 4.7,0 6.1,-3 6.1,-5.2 0,-3.8 -3.4,-5.4 -7,-5.4 h -2 v -2.7 h 2 c 2.6,0 6,-1.4 6,-4.6 0,-2.2 -1.4,-4.1 -4.7,-4.1 -2.2,0 -4.2,1 -5.4,1.8 l -1,-2.6 c 1.4,-1 4.1,-2.1 7,-2.1 5.3,0 7.7,3.1 7.7,6.4 0,2.8 -1.7,5.1 -5,6.3 v 0.1 c 3.3,0.7 6,3.1 6,6.9 0,4.3 -3.4,8.1 -9.8,8.1 -3,0 -5.7,-1 -7,-1.8 z"
     id="path29" /><text
     class="st5 st3 st6"
     alignment-baseline="middle"
     text-anchor="middle"
     id="text31"
     x="173.92"
     y="143.16">PLACES TO SEE</text><text
     class="st5 st3 st7"
     alignment-baseline="middle"
     text-anchor="middle"
     id="text33"
     x="173.34"
     y="180.06">IN</text><text
     class="st5 st3 st8"
     alignment-baseline="middle"
     text-anchor="middle"
     id="text35"
     x="173.78"
     y="216.96001">CHARLOTTE</text><path
     class="st9"
     d="m 116.3,284.5 c 0.7,-3.1 0,-4.3 -8,-6.7 -8,-2.4 -63.1,-12.2 -75.4,-32.3 -0.4,18.5 16.1,29.9 16.1,29.9 0,0 -24.8,0 -37.1,-6.1 12,17.2 53.1,28 53.1,28 l 39.9,-6.2 z"
     id="path64"
     style="fill:url(#h)" /><path
     class="st10"
     d="m 235.9,284.3 c -0.7,-3.1 0,-4.3 8,-6.7 8,-2.4 63.1,-12.2 75.4,-32.3 0.4,18.5 -16.1,29.9 -16.1,29.9 0,0 24.8,0 37.1,-6.1 -12,17.2 -53.1,28 -53.1,28 l -39.9,-6.2 z"
     id="path97"
     style="fill:url(#g)" /><path
     class="st11"
     d="m 243.9,278.3 c 8,-2.4 63,-12.2 75.4,-32.3 v -0.8 c -12.3,20.1 -67.4,29.9 -75.4,32.3 -7,2.1 -8.4,3.3 -8.2,5.6 0.2,-1.7 2.1,-2.9 8.2,-4.8 z"
     id="path114"
     style="fill:url(#f)" /><path
     class="st12"
     d="m 304.1,275.2 c -0.6,0.5 -1,0.8 -1,0.8 0,0 23.7,0 36.3,-5.7 0.3,-0.4 0.6,-0.8 0.9,-1.2 -10.9,5.4 -31.4,6 -36.2,6.1 z"
     id="path131"
     style="fill:url(#e)" /><path
     class="st13"
     d="m 49.1,276.2 c 0,0 -0.4,-0.2 -1,-0.8 -4.7,-0.1 -25.3,-0.7 -36.1,-6.1 0.3,0.4 0.6,0.8 0.9,1.2 12.5,5.7 36.2,5.7 36.2,5.7 z"
     id="path148"
     style="fill:url(#d)" /><path
     class="st14"
     d="m 108.4,277.8 c -8,-2.4 -63.1,-12.2 -75.4,-32.3 v 0.8 c 12.3,20.1 67.4,29.8 75.4,32.2 6.2,1.8 8,3 8.2,4.8 0.2,-2.2 -1.3,-3.4 -8.2,-5.5 z"
     id="path165"
     style="fill:url(#c)" /><path
     class="st15"
     d="m 74.3,279.4 c 2,-2.9 9.6,-2.1 21.4,1.5 11.8,3.6 18.5,4.3 20.9,1.5 1.1,4.2 -9.1,15.3 -9.1,15.3 l -29,-2.6 c 0,0 -3.5,-0.9 -3.8,-1.6 -0.3,-0.7 -0.4,-14.1 -0.4,-14.1 z"
     id="path194"
     style="fill:url(#b)" /><path
     class="st16"
     d="m 278,279.4 c -2,-2.9 -9.6,-2.1 -21.4,1.5 -11.8,3.6 -18.5,4.3 -20.9,1.5 -1.1,4.2 9.1,15.3 9.1,15.3 l 29,-2.6 c 0,0 3.5,-0.9 3.8,-1.6 0.4,-0.7 0.4,-14.1 0.4,-14.1 z"
     id="path223"
     style="fill:url(#a)" /><path
     class="st17"
     d="m 74.6,279.2 -16.9,22.7 c -3.9,4.8 -3.9,4.8 -1.4,7 25.1,15.7 76.1,21.6 117.4,22.1 h 1.7 V 302.8 C 77.9,302 74.6,279.2 74.6,279.2 Z"
     id="path260"
     style="fill:url(#q)" /><path
     class="st18"
     d="m 178.5,330.9 c 41.3,-0.4 92.3,-6.4 117.4,-22.1 2.4,-2.1 2.4,-2.1 -1.4,-7 l -16.9,-22.7 c 0,0 -3.3,22.9 -101.5,23.6 h -0.8 v 28.2 h 0.8 z"
     id="path291"
     style="fill:url(#p)" /><path
     class="st19"
     d="m 277.5,280.3 c 0,0 -3.3,22.9 -101.5,23.6 C 77.9,303.3 74.6,280.3 74.6,280.3 v -1.1 c 0,0 3.3,22.9 101.5,23.6 98.2,-0.7 101.5,-23.6 101.5,-23.6 z"
     id="path308"
     style="fill:url(#o)" /><path
     class="st20"
     d="m 86.6,300.4 -4.9,-1.4 0.5,-1.8 12,3.5 -0.5,1.8 -4.9,-1.4 -4.2,14.3 -2.1,-0.6 z"
     id="path310" /><path
     class="st20"
     d="m 97.7,301.6 -1.6,6.8 7.9,1.8 1.6,-6.8 2.1,0.5 -3.8,16.4 -2.1,-0.5 1.8,-7.7 -7.9,-1.8 -1.8,7.7 -2.1,-0.5 3.8,-16.4 z"
     id="path312" /><path
     class="st20"
     d="m 111.1,304.8 c 1.1,0 2.7,0.1 4.2,0.4 2.3,0.4 3.7,1.1 4.6,2.2 0.7,0.9 1,2.1 0.8,3.4 -0.4,2.2 -2,3.4 -3.9,3.7 v 0.1 c 1.2,0.7 1.7,2 1.8,3.8 0.1,2.4 0.2,4.1 0.5,4.8 l -2.2,-0.4 c -0.2,-0.5 -0.3,-2 -0.4,-4.1 -0.1,-2.4 -0.8,-3.4 -2.7,-3.8 l -2,-0.4 -1.3,7.2 -2.1,-0.4 z m 0.8,7.9 2.2,0.4 c 2.3,0.4 4,-0.6 4.3,-2.5 0.4,-2.1 -1,-3.3 -3.3,-3.8 -1,-0.2 -1.8,-0.2 -2.1,-0.2 z"
     id="path314" /><path
     class="st20"
     d="m 131.6,316.7 -6.5,-0.8 -0.8,6 7.2,1 -0.2,1.8 -9.4,-1.2 2.2,-16.7 9,1.2 -0.2,1.8 -6.8,-0.9 -0.7,5.3 6.5,0.9 z"
     id="path316" /><path
     class="st20"
     d="m 143.9,317.9 -6.5,-0.6 -0.6,6 7.3,0.7 -0.2,1.8 -9.4,-0.9 1.5,-16.7 9.1,0.8 -0.1,2 -6.9,-0.6 -0.5,5.3 6.4,0.6 z"
     id="path318" /><path
     class="st20"
     d="m 153.2,309.8 c 1,-0.2 2.5,-0.2 4,-0.2 2.2,0.1 3.5,0.5 4.6,1.4 0.8,0.7 1.4,1.7 1.3,3 -0.1,1.6 -1.2,3 -3,3.6 1.6,0.5 3.4,1.9 3.3,4.3 0,1.4 -0.7,2.5 -1.5,3.3 -1.2,1 -3.1,1.4 -5.9,1.4 -1.5,0 -2.6,-0.2 -3.4,-0.3 z m 1.6,15.1 c 0.4,0.1 1,0.2 1.8,0.2 2.2,0.1 4.3,-0.6 4.4,-3.1 0.1,-2.3 -1.8,-3.3 -4.2,-3.4 l -1.8,-0.1 z m 0.3,-8.1 2,0.1 c 2.3,0.1 3.7,-1 3.7,-2.7 0.1,-2 -1.4,-2.8 -3.6,-2.9 -1,0 -1.6,0 -1.9,0.1 z"
     id="path320" /><path
     class="st20"
     d="m 175.2,319 h -6.6 v 6.1 h 7.3 v 1.8 h -9.5 l 0.1,-16.8 h 9.1 v 1.8 h -6.9 v 5.3 h 6.6 v 1.8 z"
     id="path322" /><path
     class="st20"
     d="m 178.7,324.2 c 1,0.6 2.4,1 3.9,1 2.2,0 3.5,-1.3 3.5,-3 0,-1.6 -1,-2.5 -3.3,-3.3 -2.8,-0.9 -4.5,-2.3 -4.6,-4.6 -0.1,-2.6 2.1,-4.6 5.3,-4.7 1.7,0 3,0.3 3.7,0.7 l -0.6,1.8 c -0.6,-0.3 -1.7,-0.8 -3.2,-0.7 -2.3,0.1 -3.1,1.5 -3.1,2.6 0,1.6 1.1,2.3 3.4,3.1 2.9,1 4.4,2.3 4.4,4.8 0.1,2.6 -1.8,4.9 -5.8,5 -1.6,0 -3.4,-0.4 -4.3,-1 z"
     id="path324" /><path
     class="st20"
     d="m 193.7,311.4 -5.1,0.3 -0.1,-1.8 12.4,-0.7 0.1,1.8 -5.1,0.3 0.8,14.9 -2.2,0.1 z"
     id="path326" /><path
     class="st20"
     d="m 207.3,308.8 c 1.1,-0.3 2.6,-0.6 4.1,-0.8 2.3,-0.2 3.9,0 5,0.9 0.9,0.7 1.5,1.7 1.6,3.1 0.2,2.2 -1,3.8 -2.7,4.6 v 0.1 c 1.4,0.3 2.2,1.4 2.8,3.1 0.8,2.3 1.3,3.9 1.7,4.4 l -2.2,0.2 c -0.3,-0.4 -0.8,-1.9 -1.5,-3.9 -0.7,-2.3 -1.7,-3.1 -3.7,-2.9 l -2,0.2 0.7,7.3 -2.1,0.2 z m 2.9,7.4 2.2,-0.2 c 2.3,-0.2 3.7,-1.6 3.5,-3.5 -0.2,-2.1 -1.9,-2.9 -4.1,-2.7 -1,0.1 -1.8,0.3 -2.1,0.4 z"
     id="path328" /><path
     class="st20"
     d="m 224.3,318.4 -1.1,5.5 -2.2,0.3 3.5,-17.4 2.6,-0.3 7.8,16 -2.3,0.3 -2.5,-5 z m 5.2,-2.4 -2.2,-4.6 c -0.5,-1 -0.9,-2 -1.3,-2.9 -0.1,1 -0.3,2.1 -0.5,3.1 l -1,5 z"
     id="path330" /><path
     class="st20"
     d="m 236.3,307 -5,0.8 -0.3,-1.8 12.3,-1.9 0.3,1.8 -5.1,0.8 2.2,14.8 -2.2,0.3 z"
     id="path332" /><path
     class="st20"
     d="m 254.7,311.2 -6.4,1.1 1,6 7.2,-1.3 0.3,1.8 -9.3,1.6 -2.9,-16.6 8.9,-1.5 0.3,1.8 -6.8,1.2 0.9,5.2 6.4,-1.1 z"
     id="path334" /><path
     class="st20"
     d="m 256.2,302 c 1.3,-0.5 2.8,-0.9 4.4,-1.3 3.1,-0.6 5.4,-0.4 7.1,0.7 1.7,1 3,2.8 3.5,5.4 0.6,2.7 0.2,5 -1.1,6.9 -1.2,1.9 -3.6,3.2 -6.8,3.9 -1.5,0.3 -2.8,0.5 -3.9,0.6 z m 5.1,14.2 c 0.6,0 1.4,-0.2 2.2,-0.3 4.5,-0.9 6.5,-4 5.6,-8.4 -0.8,-3.9 -3.5,-5.9 -7.9,-5 -1.1,0.2 -1.9,0.5 -2.5,0.7 z"
     id="path336" /><circle
     class="st21"
     cx="275.29999"
     cy="299.79999"
     r="3.9000001"
     id="circle338" /><path
     class="st20"
     d="m 273.1,297.9 c 0.3,-0.2 0.8,-0.4 1.2,-0.6 0.7,-0.2 1.2,-0.3 1.6,-0.1 0.3,0.1 0.6,0.4 0.7,0.8 0.2,0.6 0,1.2 -0.5,1.6 0.4,0 0.8,0.3 1.1,0.8 0.4,0.6 0.7,1.1 0.9,1.2 l -0.7,0.2 c -0.1,-0.1 -0.4,-0.5 -0.8,-1.1 -0.4,-0.6 -0.8,-0.8 -1.4,-0.6 l -0.6,0.2 0.8,2.1 -0.6,0.2 z m 1.4,2.1 0.6,-0.2 c 0.7,-0.2 1,-0.8 0.8,-1.4 -0.2,-0.6 -0.8,-0.8 -1.5,-0.5 -0.3,0.1 -0.5,0.2 -0.6,0.3 z"
     id="path340" /><polygon
     class="st22"
     points="207.4,245.4 205.5,252.6 198.2,251.9 204.4,255.9 201.5,262.7 207.2,257.9 212.8,262.8 210,256 216.5,252.1 209,252.6 "
     id="polygon359"
     style="fill:url(#n)" /><polygon
     class="st23"
     points="142.2,245.4 140.3,252.6 133,251.9 139.2,255.9 136.3,262.7 142,257.9 147.5,262.8 144.8,256 151.2,252.1 143.8,252.6 "
     id="polygon378"
     style="fill:url(#m)" /><polygon
     class="st24"
     points="158.5,241.7 156.3,250.4 147.3,249.6 154.9,254.4 151.3,262.6 158.3,256.9 165.1,262.8 161.7,254.5 169.6,249.8 160.5,250.4 "
     id="polygon397"
     style="fill:url(#l)" /><polygon
     class="st25"
     points="190.9,242.5 188.8,250.9 180.2,250.1 187.5,254.7 184,262.6 190.7,257.1 197.2,262.8 194,254.8 201.5,250.3 192.8,250.9 "
     id="polygon416"
     style="fill:url(#k)" /><polygon
     class="st26"
     points="175.6,238.1 173,248.3 162.5,247.3 171.4,252.9 167.2,262.6 175.3,255.9 183.2,262.8 179.3,253.1 188.5,247.6 177.9,248.4 "
     id="polygon435"
     style="fill:url(#j)" /></g>
</svg>
